<?xml version="1.0" standalone="no"?>
<!DOCTYPE svg PUBLIC "-//W3C//DTD SVG 1.1//EN" "http://www.w3.org/Graphics/SVG/1.1/DTD/svg11.dtd" >
<svg xmlns="http://www.w3.org/2000/svg">
  <metadata>Created by iconfont</metadata>
  <defs>
  <font id="iconfont" horiz-adv-x="1024">
    <font-face
      font-family="iconfont"
      font-weight="400"
      font-stretch="normal"
      units-per-em="1024"
      ascent="896"
      descent="-128"
    />
      <missing-glyph />
      
      <glyph glyph-name="app_quanping" unicode="&#59826;" d="M841.142857 749.714286h-219.428571c-21.942857 0-36.571429-14.628571-36.571429-36.571429s14.628571-36.571429 36.571429-36.571428H804.571429v-182.857143c0-21.942857 14.628571-36.571429 36.571428-36.571429s36.571429 14.628571 36.571429 36.571429v219.428571c0 21.942857-14.628571 36.571429-36.571429 36.571429zM402.285714 91.428571H219.428571V274.285714c0 21.942857-14.628571 36.571429-36.571428 36.571429s-36.571429-14.628571-36.571429-36.571429v-219.428571c0-21.942857 14.628571-36.571429 36.571429-36.571429h219.428571c21.942857 0 36.571429 14.628571 36.571429 36.571429s-14.628571 36.571429-36.571429 36.571428zM841.142857 310.857143c-21.942857 0-36.571429-14.628571-36.571428-36.571429v-131.657143L629.028571 318.171429c-14.628571 14.628571-36.571429 14.628571-51.2 0s-14.628571-36.571429 0-51.2l175.542858-175.542858H621.714286c-21.942857 0-36.571429-14.628571-36.571429-36.571428s14.628571-36.571429 36.571429-36.571429h234.057143c7.314286 7.314286 14.628571 7.314286 21.942857 21.942857V274.285714c0 21.942857-14.628571 36.571429-36.571429 36.571429zM270.628571 676.571429h131.657143c21.942857 0 36.571429 14.628571 36.571429 36.571428S424.228571 749.714286 402.285714 749.714286H168.228571l-21.942857-21.942857v-234.057143c0-21.942857 14.628571-36.571429 36.571429-36.571429s36.571429 14.628571 36.571428 36.571429V625.371429l175.542858-175.542858c7.314286-7.314286 14.628571-7.314286 29.257142-7.314285s21.942857 0 29.257143 7.314285c14.628571 14.628571 14.628571 36.571429 0 51.2L270.628571 676.571429z"  horiz-adv-x="1024" />
      
      <glyph glyph-name="app_tuichuquanping" unicode="&#59827;" d="M424.228571 735.085714c-21.942857 0-36.571429-14.628571-36.571428-36.571428v-131.657143L212.114286 742.4c-14.628571 7.314286-43.885714 7.314286-58.514286 0s-7.314286-43.885714 0-58.514286l175.542857-175.542857H204.8c-21.942857 0-36.571429-14.628571-36.571429-36.571428s14.628571-36.571429 36.571429-36.571429H438.857143c7.314286 7.314286 14.628571 7.314286 21.942857 21.942857V691.2c-7.314286 21.942857-21.942857 43.885714-36.571429 43.885714zM841.142857 749.714286h-219.428571c-21.942857 0-36.571429-14.628571-36.571429-36.571429s14.628571-36.571429 36.571429-36.571428H804.571429v-182.857143c0-21.942857 14.628571-36.571429 36.571428-36.571429s36.571429 14.628571 36.571429 36.571429v219.428571c0 21.942857-14.628571 36.571429-36.571429 36.571429zM402.285714 91.428571H219.428571V274.285714c0 21.942857-14.628571 36.571429-36.571428 36.571429s-36.571429-14.628571-36.571429-36.571429v-219.428571c0-21.942857 14.628571-36.571429 36.571429-36.571429h219.428571c21.942857 0 36.571429 14.628571 36.571429 36.571429s-14.628571 36.571429-36.571429 36.571428zM694.857143 252.342857h131.657143c21.942857 0 36.571429 14.628571 36.571428 36.571429s-14.628571 36.571429-36.571428 36.571428H592.457143c-14.628571 0-21.942857-7.314286-21.942857-21.942857v-234.057143c0-21.942857 14.628571-36.571429 36.571428-36.571428s36.571429 14.628571 36.571429 36.571428V201.142857l175.542857-175.542857c7.314286-7.314286 14.628571-7.314286 29.257143-7.314286s21.942857 0 29.257143 7.314286c14.628571 14.628571 14.628571 36.571429 0 51.2L694.857143 252.342857z"  horiz-adv-x="1024" />
      
      <glyph glyph-name="App-jiazai" unicode="&#59824;" d="M512 896a512 512 0 1 0 0-1024A512 512 0 0 0 512 896z m0-192a320 320 0 1 1 0-640 320 320 0 0 1 0 640z"  horiz-adv-x="1024" />
      
      <glyph glyph-name="App-weishenhe" unicode="&#59825;" d="M512 896a512 512 0 1 0 0-1024A512 512 0 0 0 512 896z m0-384a64 64 0 0 1-64-64v-320a64 64 0 0 1 128 0V448a64 64 0 0 1-64 64z m0 192a64 64 0 1 1 0-128 64 64 0 0 1 0 128z"  horiz-adv-x="1024" />
      
      <glyph glyph-name="yibangding" unicode="&#59821;" d="M460.8 640v-97.28H256A158.848 158.848 0 0 1 97.28 384 158.848 158.848 0 0 1 256 225.28h204.8V128H256c-141.312 0-256 114.688-256 256s114.688 256 256 256h204.8zM768 640c141.312 0 256-114.688 256-256s-114.688-256-256-256H563.2v97.28H768A158.848 158.848 0 0 1 926.72 384 158.848 158.848 0 0 1 768 542.72H563.2V640z m-51.2-204.8v-102.4H307.2V435.2h409.6z"  horiz-adv-x="1024" />
      
      <glyph glyph-name="jiebang" unicode="&#59822;" d="M431.396571 617.179429l51.712-51.785143 108.763429 108.836571a146.285714 146.285714 0 1 0 206.848-206.921143L689.956571 358.546286l51.712-51.712 108.836572 108.763428a219.428571 219.428571 0 1 1-310.345143 310.345143L431.396571 617.179429zM284.525714 470.308571l51.712-51.712-106.496-106.496a146.285714 146.285714 0 1 1 206.921143-206.921142l106.496 106.496 51.712-51.712-106.496-106.496a219.428571 219.428571 0 1 0-310.345143 310.345142l106.496 106.496zM285.257143 618.715429a36.571429 36.571429 0 0 0 51.712 0l410.331428-410.185143a36.571429 36.571429 0 1 0-51.712-51.712l-410.331428 410.185143a36.571429 36.571429 0 0 0 0 51.712z"  horiz-adv-x="1024" />
      
      <glyph glyph-name="bangding1" unicode="&#59823;" d="M538.916571 720.164571a219.428571 219.428571 0 0 0 310.345143-310.272L693.321143 253.952l-51.712 51.712 155.940571 155.940571a146.285714 146.285714 0 1 1-206.921143 206.848L434.688 512.512l-51.712 51.712 155.940571 155.940571zM333.312 514.56l51.712-51.712-156.379429-156.452571a146.285714 146.285714 0 0 1 206.848-206.848l156.379429 156.379428 51.712-51.712-156.379429-156.379428A219.428571 219.428571 0 1 0 177.005714 358.107429l156.379429 156.452571z m306.907429 47.030857a36.571429 36.571429 0 0 0 51.712-51.712L386.998857 204.946286a36.571429 36.571429 0 0 0-51.712 51.712l304.932572 304.932571z"  horiz-adv-x="1024" />
      
      <glyph glyph-name="a-zhidingpaixuicon" unicode="&#59820;" d="M560.753778 476.558222v-482.759111H463.246222V476.558222l-102.4-102.4-68.266666 73.159111L512 666.737778l219.420444-219.420445-68.266666-68.266666-102.4 97.507555zM804.579556 725.333333H219.420444V822.784h585.159112v-97.507556z"  horiz-adv-x="1024" />
      
      <glyph glyph-name="App-xiangyou" unicode="&#59818;" d="M365.714286 530.285714h585.142857v-292.571428H365.714286zM1024-128h-78.774857v0.073143H708.900571L630.125714-128v0.073143H393.801143L315.099429-128l-0.073143 0.073143H78.701714L0-128V896h1024v-1024zM315.026286 187.099429H78.701714v-236.324572h236.324572V187.099429z m315.099428 0H393.801143v-236.324572h236.324571V187.099429z m315.099429 0H708.900571v-236.324572h236.324572V187.099429zM315.026286 502.198857H78.701714v-236.324571h236.324572V502.198857z m315.099428 0H393.801143v-236.324571h236.324571V502.198857z m315.099429 0H708.900571v-236.324571h236.324572V502.198857zM315.026286 817.298286H78.701714v-236.324572h236.324572V817.298286z m315.099428 0H393.801143v-236.324572h236.324571V817.298286z m315.099429 0H708.900571v-236.324572h236.324572V817.298286z"  horiz-adv-x="1024" />
      
      <glyph glyph-name="App-youxia" unicode="&#59819;" d="M365.714286 530.285714h585.142857v-585.142857H365.714286zM1024-128h-78.774857l-236.324572 0.073143L630.125714-128l-236.324571 0.073143L315.099429-128l-236.397715 0.073143L0-128V896h1024v-1024zM315.026286 187.099429H78.701714v-236.324572h236.324572V187.099429z m315.099428 0H393.801143v-236.324572h236.324571V187.099429z m315.099429 0H708.900571v-236.324572h236.324572V187.099429zM315.026286 502.198857H78.701714v-236.324571h236.324572V502.198857z m315.099428 0H393.801143v-236.324571h236.324571V502.198857z m315.099429 0H708.900571v-236.324571h236.324572V502.198857zM315.026286 817.298286H78.701714v-236.324572h236.324572V817.298286z m315.099428 0H393.801143v-236.324572h236.324571V817.298286z m315.099429 0H708.900571v-236.324572h236.324572V817.298286z"  horiz-adv-x="1024" />
      
      <glyph glyph-name="App-xiangxia" unicode="&#59817;" d="M365.714286 530.285714h292.571428v-585.142857H365.714286zM1024-128h-78.774857v0.073143H708.900571L630.125714-128v0.073143H393.801143L315.099429-128l-0.073143 0.073143H78.701714L0-128V896h1024v-1024zM315.026286 187.099429H78.701714v-236.324572h236.324572V187.099429z m315.099428 0H393.801143v-236.324572h236.324571V187.099429z m315.099429 0H708.900571v-236.324572h236.324572V187.099429zM315.026286 502.198857H78.701714v-236.324571h236.324572V502.198857z m315.099428 0H393.801143v-236.324571h236.324571V502.198857z m315.099429 0H708.900571v-236.324571h236.324572V502.198857zM315.026286 817.298286H78.701714v-236.324572h236.324572V817.298286z m315.099428 0H393.801143v-236.324572h236.324571V817.298286z m315.099429 0H708.900571v-236.324572h236.324572V817.298286z"  horiz-adv-x="1024" />
      
      <glyph glyph-name="App-excel" unicode="&#59815;" d="M640 826.176H298.048c-21.952 0-42.048-18.922667-42.048-41.6v-185.301333h384V826.176zM981.952 826.176H640v-226.901333h384v183.466666c0 22.698667-18.304 43.434667-42.048 43.434667zM256 372.373333v-410.389333c0-22.698667 18.304-43.434667 40.256-43.434667h685.696c21.952 0 42.048 18.922667 42.048 41.6v185.301334H640V372.373333H256zM256 599.253333h384v-226.88H256zM640 599.253333h384v-226.88H640zM42.24 631.68h427.52c22.08 0 42.24-18.602667 42.24-40.832V155.946667c0-22.378667-18.368-42.794667-40.32-42.794667H42.24A39.189333 39.189333 0 0 0 0 148.48V588.906667c0 22.357333 18.368 42.773333 42.24 42.773333zM128 242.709333l92.928 128.810667-85.312 128.810667h68.224l47.36-81.344c1.92-5.12 5.76-11.882667 9.6-17.002667 3.712 6.826667 5.632 11.946667 9.408 18.688l49.28 81.344h62.592l-87.232-128.810667L384 244.394667h-66.368l-53.12 89.856c-1.92 3.370667-3.776 8.426667-5.696 11.861333-1.92-3.434667-3.776-8.490667-5.632-11.861333l-55.04-89.856-70.144-1.706667zM640 372.373333h384v-226.922666H640z"  horiz-adv-x="1024" />
      
      <glyph glyph-name="App-excelhuise" unicode="&#59816;" d="M640 826.176H298.048c-21.952 0-42.048-18.922667-42.048-41.6v-185.301333h384V826.176zM981.952 826.176H640v-226.901333h384v183.466666c0 22.698667-18.304 43.434667-42.048 43.434667zM256 372.373333v-410.389333c0-22.698667 18.304-43.434667 40.256-43.434667h685.696c21.952 0 42.048 18.922667 42.048 41.6v185.301334H640V372.373333H256zM256 599.253333h384v-226.88H256zM640 599.253333h384v-226.88H640zM42.24 631.68h427.52c22.08 0 42.24-18.602667 42.24-40.832V155.946667c0-22.378667-18.368-42.794667-40.32-42.794667H42.24A39.189333 39.189333 0 0 0 0 148.48V588.906667c0 22.357333 18.368 42.773333 42.24 42.773333zM128 242.709333l92.928 128.810667-85.312 128.810667h68.224l47.36-81.344c1.92-5.12 5.76-11.882667 9.6-17.002667 3.712 6.826667 5.632 11.946667 9.408 18.688l49.28 81.344h62.592l-87.232-128.810667L384 244.394667h-66.368l-53.12 89.856c-1.92 3.370667-3.776 8.426667-5.696 11.861333-1.92-3.434667-3.776-8.490667-5.632-11.861333l-55.04-89.856-70.144-1.706667zM640 372.373333h384v-226.922666H640z"  horiz-adv-x="1024" />
      
      <glyph glyph-name="jiaofuwu1" unicode="&#59814;" d="M401.481143 748.982857a73.142857 73.142857 0 0 0 58.441143-29.110857L547.84 603.136h329.947429a73.142857 73.142857 0 0 0 73.142857-73.142857v-476.452572a73.142857 73.142857 0 0 0-73.142857-73.142857H146.724571a73.142857 73.142857 0 0 0-73.142857 73.142857V675.84a73.142857 73.142857 0 0 0 73.142857 73.142857H401.554286z m0-73.142857H146.724571v-622.299429h731.062858V529.92L547.84 529.993143a73.142857 73.142857 0 0 0-58.441143 29.110857L401.554286 675.84zM647.387429 355.035429a36.571429 36.571429 0 1 0-51.712-51.785143L548.571429 350.427429v-204.141715a36.571429 36.571429 0 0 0-29.988572-35.986285L512 109.714286a36.571429 36.571429 0 0 0-36.571429 36.571428V350.72l-47.469714-47.469714a36.571429 36.571429 0 0 0-46.665143-4.169143l-5.046857 4.169143a36.571429 36.571429 0 0 0 0 51.785143l109.714286 109.714285a36.571429 36.571429 0 0 0 8.045714 6.070857l5.339429 2.413715 3.072 0.950857 3.876571 0.804571 2.413714 0.292572h6.217143l7.314286-1.389715 4.169143-1.462857 3.803428-1.828571 5.339429-3.803429 111.908571-111.762285z"  horiz-adv-x="1024" />
      
      <glyph glyph-name="jinhangzhong1" unicode="&#59813;" d="M512 896a512 512 0 1 1 0-1024A512 512 0 0 1 512 896z m0-85.333333a426.666667 426.666667 0 1 0 0-853.333334 426.666667 426.666667 0 0 0 0 853.333334zM512 810.666667a426.666667 426.666667 0 1 0 0-853.333334 426.666667 426.666667 0 0 0 0 853.333334zM286.037333 412.444444c16.554667 0 30.037333-13.425778 30.037334-30.037333v-139.036444a30.037333 30.037333 0 0 0-60.074667 0V382.407111c0 16.611556 13.425778 30.037333 30.037333 30.037333zM406.072889 554.666667c16.611556 0 30.094222-13.425778 30.094222-30.037334v-281.258666a30.037333 30.037333 0 0 0-60.074667 0V524.629333c0 16.611556 13.425778 30.037333 30.037334 30.037334zM526.222222 497.777778c16.554667 0 30.037333-13.425778 30.037334-30.037334v-224.369777a30.037333 30.037333 0 0 0-60.074667 0V467.740444c0 16.611556 13.482667 30.037333 30.037333 30.037334z m120.092445-113.777778c16.611556 0 30.037333-13.425778 30.037333-30.037333v-110.592a30.037333 30.037333 0 0 0-60.074667 0V353.962667c0 16.611556 13.482667 30.037333 30.037334 30.037333z m120.092444 142.222222c16.611556 0 30.037333-13.425778 30.037333-30.037333v-252.814222a30.037333 30.037333 0 0 0-60.074666 0V496.184889c0 16.611556 13.482667 30.037333 30.037333 30.037333z"  horiz-adv-x="1024" />
      
      <glyph glyph-name="a-bianzu54" unicode="&#59808;" d="M512 384m-341.333333 0a341.333333 341.333333 0 1 1 682.666666 0 341.333333 341.333333 0 1 1-682.666666 0ZM512 896a512 512 0 1 0 0-1024A512 512 0 0 0 512 896z m0-170.666667a341.333333 341.333333 0 1 1 0-682.666666 341.333333 341.333333 0 0 1 0 682.666666z"  horiz-adv-x="1024" />
      
      <glyph glyph-name="bianzu-30" unicode="&#59812;" d="M512 782.208a398.208 398.208 0 1 0 0-796.416A398.208 398.208 0 0 0 512 782.208zM512 896a512 512 0 1 1 0-1024A512 512 0 0 1 512 896z m0-113.792a398.208 398.208 0 1 0 0-796.416A398.208 398.208 0 0 0 512 782.208zM499.072 200.832a44.8 44.8 0 0 0-30.72-11.904 44.928 44.928 0 0 0-30.72 11.904L264.704 363.2a39.04 39.04 0 0 0-12.8 28.608c0 22.464 19.52 40.64 43.392 40.64a44.864 44.864 0 0 0 30.72-11.904l142.272-133.568 229.632 215.232a44.864 44.864 0 0 0 30.72 11.84c24 0 43.392-18.24 43.392-40.576a39.232 39.232 0 0 0-12.672-28.608l-260.288-244.032z"  horiz-adv-x="1024" />
      
      <glyph glyph-name="a-123456" unicode="&#59811;" d="M511.863467-95.91466700000001a477.866667 477.866667 0 1 1 0 955.733334 477.866667 477.866667 0 0 1 0-955.733334zM511.863467 859.818667a477.866667 477.866667 0 1 0 0-955.733334 477.866667 477.866667 0 0 0 0 955.733334z m0-68.266667a409.6 409.6 0 1 1 0-819.2 409.6 409.6 0 0 1 0 819.2zM428.2368 568.2517330000001l286.72-165.546666a23.893333 23.893333 0 0 0 0-41.437867l-286.72-165.4784a23.893333 23.893333 0 0 0-35.84 20.6848v331.093333a23.893333 23.893333 0 0 0 35.84 20.6848z"  horiz-adv-x="1024" />
      
      <glyph glyph-name="lajitong" unicode="&#59809;" d="M687.458462 846.139077a39.384615 39.384615 0 0 0 38.83323-32.768l21.188923-123.510154 197.71077-0.078769a39.384615 39.384615 0 1 0 0-78.769231h-76.012308v-670.089846a39.384615 39.384615 0 0 0-39.384615-39.384615h-632.516924a39.384615 39.384615 0 0 0-39.384615 39.384615V611.091692l-78.217846-0.078769a39.384615 39.384615 0 1 0 0 78.769231h196.608l21.267692 123.667692A39.384615 39.384615 0 0 0 336.305231 846.060308h351.153231z m102.951384-235.126154h-553.747692v-630.626461h553.747692V611.012923z m-376.438154-78.375385a39.384615 39.384615 0 0 0 39.384616-39.384615v-393.846154a39.384615 39.384615 0 1 0-78.769231 0v393.846154a39.384615 39.384615 0 0 0 39.384615 39.384615z m197.159385 0a39.384615 39.384615 0 0 0 39.384615-39.384615v-393.846154a39.384615 39.384615 0 1 0-78.76923 0v393.846154a39.384615 39.384615 0 0 0 39.384615 39.384615z m43.086769 234.732308H369.388308l-13.39077-77.508923h311.453539l-13.390769 77.508923z"  horiz-adv-x="1024" />
      
      <glyph glyph-name="yanjing3" unicode="&#59810;" d="M512 718.189714c161.499429 0 304.274286-101.156571 428.690286-294.619428a73.142857 73.142857 0 0 0 0-79.140572c-124.342857-193.462857-267.190857-294.619429-428.690286-294.619428-161.499429 0-304.274286 101.156571-428.690286 294.619428a73.142857 73.142857 0 0 0 0 79.140572C207.652571 617.033143 350.500571 718.189714 512 718.189714z m0-73.142857c-132.022857 0-254.317714-85.577143-367.177143-261.046857C257.682286 208.457143 379.977143 122.953143 512 122.953143c132.022857 0 254.317714 85.577143 367.177143 261.046857C766.317714 559.542857 644.022857 645.046857 512 645.046857zM512 537.6a153.6 153.6 0 1 0 0-307.2 153.6 153.6 0 0 0 0 307.2z m0-73.142857a80.457143 80.457143 0 1 1 0-160.914286 80.457143 80.457143 0 0 1 0 160.914286z"  horiz-adv-x="1024" />
      
      <glyph glyph-name="shouqi21" unicode="&#59807;" d="M940.178286 322.706286a36.352 36.352 0 1 0-51.273143-51.492572l-373.028572 372.589715-374.930285-372.662858a36.352 36.352 0 0 0-46.372572-3.949714l-4.973714 4.242286a36.352 36.352 0 0 0 0.219429 51.346286l400.457142 398.043428a36.352 36.352 0 0 0 51.2-0.073143l398.701715-398.043428zM950.857143 76.068571a39.350857 39.350857 0 0 1-39.350857 39.277715H112.493714a39.350857 39.350857 0 1 1 0-78.701715h799.012572c21.723429 0 39.350857 17.627429 39.350857 39.350858z"  horiz-adv-x="1024" />
      
      <glyph glyph-name="a-yiwancheng11" unicode="&#59805;" d="M512 896a512 512 0 1 1 0-1024A512 512 0 0 1 512 896z m0-113.778a398.222 398.222 0 1 0 0-796.444 398.222 398.222 0 0 0 0 796.444zM759.41 444.814L499.086 200.818a44.715 44.715 0 0 0-30.777-11.947 44.942 44.942 0 0 0-30.72 11.947L264.647 363.122a39.026 39.026 0 0 0-12.686 28.615c0 22.528 19.456 40.619 43.35 40.619 11.377 0.113 22.357-4.153 30.72-11.89l142.278-133.518 229.66 215.21a44.885 44.885 0 0 0 30.72 11.833c23.894 0 43.35-18.204 43.35-40.562a39.253 39.253 0 0 0-12.63-28.615v-0.057z"  horiz-adv-x="1024" />
      
      <glyph glyph-name="sousuo8" unicode="&#59803;" d="M82.531 184.95h341.071a418.737 418.737 0 0 0-93.026 98.068H82.61a44.11 44.11 0 0 1-43.48-44.741v-8.27c0-24.813 19.455-44.978 43.322-44.978m764.85-12.052a41.984 41.984 0 0 1-54.351 25.128l-10.24-3.939A42.457 42.457 0 0 1 757.82 139.5l73.885-200.231c8.192-22.055 32.453-33.32 54.272-25.127l10.24 3.938a42.535 42.535 0 0 1 25.049 54.745l-73.964 200.073zM670.465 21.504H82.53a44.11 44.11 0 0 1-43.323-44.898v-8.271c0-24.813 19.377-45.056 43.323-45.056h587.934a44.11 44.11 0 0 1 43.323 44.898v8.429a44.11 44.11 0 0 1-43.323 44.898M349.953 473.009c5.277-33.083 15.36-66.087 30.877-97.516 16.936-34.343 39.149-64.118 64.67-89.167 34.658-34.028 75.618-59.392 119.887-74.437a308.303 308.303 0 0 1 244.972 19.614c156.987 83.18 219.136 282.545 139.028 445.282C880.937 815.183 731.51 882.137 591.774 847.635a311.138 311.138 0 0 1-71.995-27.017 319.173 319.173 0 0 1-83.968-64.59A336.423 336.423 0 0 1 348.22 566.43c-3.702-30.8-3.15-62.228 1.733-93.5M665.03 776.586c133.592 0 241.821-112.246 241.821-250.723 0-138.397-108.229-250.643-241.821-250.643-133.593 0-241.822 112.246-241.822 250.643s108.23 250.723 241.822 250.723M85.603 552.33a47.42 47.42 0 0 1-46.474-48.207v-9.058a47.262 47.262 0 0 1 46.474-48.05h178.255a440.241 440.241 0 0 0-7.404 78.927c0 8.822 0.787 17.566 1.339 26.388H85.603z m-3.15 179.751h225.91c19.692 36.392 44.347 69.396 73.097 98.147H82.452a44.11 44.11 0 0 1-43.323-44.741v-8.35c0-24.89 19.378-45.056 43.323-45.056z"  horiz-adv-x="1024" />
      
      <glyph glyph-name="dianzan1" unicode="&#59806;" d="M463.701333 896c97.962667 0 177.322667-79.445333 177.322667-177.493333v-157.013334h251.904c34.218667 0.426667 67.072-12.8 91.477333-36.352l7.850667-8.277333c24.917333-28.672 36.010667-66.901333 30.293333-104.618667l-65.877333-429.994666c-9.728-64-64.938667-110.933333-129.194667-110.250667H145.92C72.704-129.27999999999997 10.24-75.51999999999998 0 1.7066670000000386l0.341333 339.114666c9.898667 73.301333 72.96 131.669333 145.066667 130.389334l107.52 0.085333L432.554667 875.776a34.133333 34.133333 0 0 0 24.576 19.626667z m21.248-70.4L306.944 424.789333V-59.733333000000016H827.733333a61.44 61.44 0 0 1 59.733334 44.885333l1.706666 7.424 65.706667 429.994667a61.44 61.44 0 0 1-61.610667 70.656H606.890667a34.133333 34.133333 0 0 0-34.133334 34.133333V718.506667A109.226667 109.226667 0 0 1 492.714667 823.808L484.949333 825.6zM238.677333 402.944h-93.866666c-34.304 0.597333-66.56-26.88-75.008-59.221333L68.266667 336.21333300000003l-0.341334-329.898666c5.205333-38.4 38.229333-66.730667 77.397334-66.048h93.354666V403.029333z"  horiz-adv-x="1024" />
      
      <glyph glyph-name="xuanzhong1" unicode="&#59804;" d="M463.702316 896a34.132639 34.132639 0 0 1-31.146033-20.30892L241.498837 445.61983l-2.901275-13.823719v-525.642639c0-18.858283 15.274356-34.132639 34.132639-34.132639h554.655382c64.254693-0.767984 119.464236 46.335057 129.192039 110.248424l65.875993 430.07125a129.704028 129.704028 0 0 1-30.378049 104.531206l-7.765175 8.277165a129.533365 129.533365 0 0 1-91.475472 36.351261H641.021375V718.510278C641.021375 816.556283 561.66299 896 463.702316 896zM0.010416 384.010416a85.331597 85.331597 0 0 0 85.331598 85.331598h85.331597v-597.321181H85.342014a85.331597 85.331597 0 0 0-85.331598 85.331597V384.010416z"  horiz-adv-x="1024" />
      
      <glyph glyph-name="shaixuanicon" unicode="&#59801;" d="M437.771876 875.188823L186.078814 571.536074c-34.89575-38.905775-6.484296-102.212979 46.925825-102.212979h500.655895c53.495441 0 81.821575 63.221884 46.243268 103.236815L530.173092 875.103503a62.027409 62.027409 0 0 1-92.401216 0z m46.072629-55.969711l229.936543-278.568763h-460.726283L483.844505 819.219112zM437.771876-61.791927l-251.693062 303.738069c-34.89575 38.820455-6.484296 102.12766 46.925825 102.12766h500.655895c53.495441 0 81.821575-63.221884 46.243268-103.236816l-249.73071-302.628913a62.027409 62.027409 0 0 0-92.401216 0z"  horiz-adv-x="1024" />
      
      <glyph glyph-name="tiaozhengchanneng" unicode="&#59788;" d="M201.142857 832c-38.4 0-64-25.6-64-64v-768c0-38.4 25.6-64 64-64h640c38.4 0 64 25.6 64 64V768c0 38.4-25.6 64-64 64H201.142857z m0 64h640c70.436571 0 128-57.563429 128-128v-768c0-70.436571-57.563429-128-128-128H201.142857C130.706286-128 73.142857-70.436571 73.142857 0V768C73.142857 838.436571 130.706286 896 201.142857 896z m-64-256h768v-64h-768V640z m524.8-576c19.163429 0 32.036571 12.8 32.036572 32.036571 0 19.163429-12.8 31.963429-32.036572 31.963429s-32.036571-12.8-32.036571-32.036571c0-19.163429 19.236571-31.963429 32.036571-31.963429z m0-64c-51.2 0-96.036571 44.836571-96.036571 96.036571S610.742857 191.926857 661.942857 191.926857s96.036571-44.836571 96.036572-96.036571-38.4-95.963429-96.036572-95.963429zM341.942857 320c19.236571 0 32.036571 12.8 32.036572 32.036571 0 19.163429-12.873143 31.963429-32.036572 31.963429s-32.036571-12.8-32.036571-32.036571c0-19.163429 19.236571-31.963429 32.036571-31.963429z m0-64c-51.2 0-96.036571 44.836571-96.036571 96.036571s44.836571 95.963429 96.036571 95.963429 96.036571-44.763429 96.036572-96.036571c0-51.2-38.473143-95.963429-96.036572-95.963429z m320 64c19.163429 0 32.036571 12.8 32.036572 32.036571 0 19.163429-12.8 31.963429-32.036572 31.963429-12.8 0-32.036571-12.8-32.036571-32.036571 0-19.163429 19.236571-31.963429 32.036571-31.963429z m0-64c-51.2 0-96.036571 44.836571-96.036571 96.036571S610.742857 448 661.942857 448s96.036571-44.763429 96.036572-96.036571c0-51.2-38.4-95.963429-96.036572-95.963429z m-320-192c19.236571 0 32.036571 12.8 32.036572 32.036571 0 19.163429-12.873143 31.963429-32.036572 31.963429s-32.036571-12.8-32.036571-32.036571c0-19.163429 19.236571-31.963429 32.036571-31.963429z m0-64c-51.2 0-96.036571 44.836571-96.036571 96.036571s44.836571 95.963429 96.036571 95.963429 96.036571-44.836571 96.036572-96.036571-38.473143-95.963429-96.036572-95.963429z"  horiz-adv-x="1024" />
      
      <glyph glyph-name="sousuo7" unicode="&#59799;" d="M477.12 800a381.12 381.12 0 0 0 291.2-626.944l150.336-150.4a32 32 0 0 0-40.832-48.96l-4.48 3.648-150.4 150.4A381.12 381.12 0 1 0 477.056 800z m0-64a317.12 317.12 0 1 1 0-634.24 317.12 317.12 0 0 1 0 634.24z"  horiz-adv-x="1024" />
      
      <glyph glyph-name="fenzu2" unicode="&#59800;" d="M856 800a51.2 51.2 0 0 0 50.304-45.888l0.384-6.464v-183.296a51.84 51.84 0 0 0-44.16-51.904L855.936 512H346.624v-85.44l341.376-0.192a32 32 0 0 0 31.488-26.24l0.512-5.76v-116.992h136a51.2 51.2 0 0 0 50.304-45.952l0.384-6.4v-183.296c0-28.352-22.08-52.416-50.688-52.416H146.688c-28.672 0-50.688 24.064-50.688 52.416v183.232c0 28.352 22.016 52.352 50.688 52.352l509.312 0.064V362.368l-341.376 0.128a32 32 0 0 0-31.424 26.24l-0.512 5.76L282.624 512H146.688a51.2 51.2 0 0 0-50.304 45.888L96 564.352V747.648a51.84 51.84 0 0 0 44.16 51.904l6.528 0.448h709.312z m-13.376-586.624H160v-160h682.624v160z m0 522.624H160V576h682.624V736zM613.312 165.312a32 32 0 0 0 5.76-63.488l-5.76-0.512h-224a32 32 0 0 0-5.76 63.488l5.76 0.512h224zM613.312 688a32 32 0 0 0 5.76-63.488l-5.76-0.512h-224a32 32 0 0 0-5.76 63.488l5.76 0.512h224z"  horiz-adv-x="1024" />
      
      <glyph glyph-name="liebiao2" unicode="&#59798;" d="M896 736a32 32 0 0 0 5.76-63.488L896 672H256a32 32 0 0 0-5.76 63.488L256 736h640z m-768-64a32 32 0 1 1 0 64 32 32 0 0 1 0-64zM896 416a32 32 0 0 0 5.76-63.488L896 352H256a32 32 0 0 0-5.76 63.488L256 416h640z m-768-64a32 32 0 1 1 0 64 32 32 0 0 1 0-64zM896 96a32 32 0 0 0 5.76-63.488L896 32H256a32 32 0 0 0-5.76 63.488L256 96h640z m-768-64a32 32 0 1 1 0 64 32 32 0 0 1 0-64z"  horiz-adv-x="1024" />
      
      <glyph glyph-name="gengduo4" unicode="&#59792;" d="M192 384m-64 0a64 64 0 1 1 128 0 64 64 0 1 1-128 0ZM512 382.912m-64 0a64 64 0 1 1 128 0 64 64 0 1 1-128 0ZM832 382.912m-64 0a64 64 0 1 1 128 0 64 64 0 1 1-128 0Z"  horiz-adv-x="1024" />
      
      <glyph glyph-name="kapian3" unicode="&#59793;" d="M384 768H224A96 96 0 0 1 128 672V512a96 96 0 0 1 96-96H384A96 96 0 0 1 480 512V672A96 96 0 0 1 384 768zM224 704H384a32 32 0 0 0 32-32V512a32 32 0 0 0-32-32H224A32 32 0 0 0 192 512V672a32 32 0 0 0 32 32zM384 352H224A96 96 0 0 1 128 256v-160A96 96 0 0 1 224 0H384a96 96 0 0 1 96 96V256A96 96 0 0 1 384 352z m-160-64H384a32 32 0 0 0 32-32v-160a32 32 0 0 0-32-32H224a32 32 0 0 0-32 32V256a32 32 0 0 0 32 32zM800 768H640a96 96 0 0 1-96-96V512A96 96 0 0 1 640 416h160A96 96 0 0 1 896 512V672A96 96 0 0 1 800 768zM640 704h160a32 32 0 0 0 32-32V512a32 32 0 0 0-32-32H640a32 32 0 0 0-32 32V672A32 32 0 0 0 640 704zM800 352H640A96 96 0 0 1 544 256v-160A96 96 0 0 1 640 0h160a96 96 0 0 1 96 96V256a96 96 0 0 1-96 96z m-160-64h160a32 32 0 0 0 32-32v-160a32 32 0 0 0-32-32H640a32 32 0 0 0-32 32V256a32 32 0 0 0 32 32z"  horiz-adv-x="1024" />
      
      <glyph glyph-name="shaixuan6" unicode="&#59794;" d="M820.928 800H203.072a96 96 0 0 1-72.96-158.464L382.72 346.56a32 32 0 0 0 7.68-20.8v-250.88a96 96 0 0 1 53.504-86.016l53.952-26.624A94.08 94.08 0 0 1 633.6 46.592V325.76a32 32 0 0 0 7.68 20.8l252.608 295.04a96 96 0 0 1-72.96 158.4z m-617.856-64h617.856a32 32 0 0 0 24.32-52.8l-252.544-295.04a96 96 0 0 1-23.104-62.4v-279.168a30.08 30.08 0 0 0-43.456-27.008l-53.888 26.688a32 32 0 0 0-17.856 28.672V325.76a96 96 0 0 1-23.04 62.4L178.688 683.2a32 32 0 0 0 24.32 52.8z"  horiz-adv-x="1024" />
      
      <glyph glyph-name="paixu4" unicode="&#59795;" d="M896 736a32 32 0 0 0 5.76-63.488L896 672H480.896a32 32 0 0 0-5.76 63.488l5.76 0.512H896zM105.344 250.944a32 32 0 0 0 40.832 3.712l4.48-3.712 166.016-166.016a32 32 0 0 0-40.832-48.96l-4.416 3.648-166.08 166.08a32 32 0 0 0 0 45.248zM294.08 800a32 32 0 0 0 31.488-26.24l0.512-5.76v-705.728a32 32 0 0 0-63.488-5.76l-0.512 5.76V768a32 32 0 0 0 32 32zM812.992 416a32 32 0 0 0 5.76-63.488l-5.76-0.512h-332.16a32 32 0 0 0-5.76 63.488l5.76 0.512h332.16zM704 96a32 32 0 0 0 5.76-63.488L704 32H448a32 32 0 0 0-5.76 63.488L448 96h256z"  horiz-adv-x="1024" />
      
      <glyph glyph-name="sousuo6" unicode="&#59796;" d="M477.12 800a381.12 381.12 0 1 1 0-762.24 381.12 381.12 0 0 1 0 762.24z m0-64a317.12 317.12 0 1 0 0-634.24 317.12 317.12 0 0 0 0 634.24zM703.488 192.512a32 32 0 0 0 40.832 3.712l4.416-3.712 169.92-169.856a32 32 0 0 0-40.832-48.96l-4.48 3.648-169.856 169.92a32 32 0 0 0 0 45.248z"  horiz-adv-x="1024" />
      
      <glyph glyph-name="fenzu1" unicode="&#59797;" d="M856 800H146.688c-28.672 0-50.688-24.064-50.688-52.352v-183.296c0-28.288 22.016-52.352 50.688-52.352h709.312c28.608 0 50.688 24.064 50.688 52.352V747.648c0 28.288-22.08 52.352-50.688 52.352z m-13.376-64V576H160V736h682.624zM856 277.312H146.688c-28.672 0-50.688-24-50.688-52.352v-183.232c0-28.352 22.016-52.416 50.688-52.416h709.312c28.608 0 50.688 24.064 50.688 52.416v183.232c0 28.352-22.08 52.352-50.688 52.352z m-13.376-63.936v-160H160v160h682.624zM314.688 576a32 32 0 0 0 31.488-26.24l0.512-5.76-0.064-117.44 341.376-0.192a32 32 0 0 0 31.488-26.24l0.512-5.76v-149.056a32 32 0 0 0-63.488-5.76l-0.512 5.76V362.368l-341.376 0.128a32 32 0 0 0-31.424 26.24l-0.512 5.76V544a32 32 0 0 0 32 32zM613.312 165.312a32 32 0 0 0 5.76-63.488l-5.76-0.512h-224a32 32 0 0 0-5.76 63.488l5.76 0.512h224zM613.312 688a32 32 0 0 0 5.76-63.488l-5.76-0.512h-224a32 32 0 0 0-5.76 63.488l5.76 0.512h224z"  horiz-adv-x="1024" />
      
      <glyph glyph-name="fanganchaxun1" unicode="&#59789;" d="M694.857143 420.571429a219.428571 219.428571 0 0 0 177.737143-348.16l102.765714-101.229715a36.571429 36.571429 0 1 0-51.273143-52.077714l-103.716571 102.034286A219.428571 219.428571 0 1 0 694.857143 420.571429z m110.957714 401.92a73.142857 73.142857 0 0 0 73.142857-73.142858V498.834286a36.571429 36.571429 0 1 0-73.142857 0V749.348571H219.282286v-731.428571h220.818285a36.571429 36.571429 0 1 0 0-73.142857H219.282286a73.142857 73.142857 0 0 0-73.142857 73.142857v731.428571a73.142857 73.142857 0 0 0 73.142857 73.142858h586.605714zM694.857143 347.428571a146.285714 146.285714 0 1 1 0-292.571428 146.285714 146.285714 0 0 1 0 292.571428zM477.184 491.739429a36.571429 36.571429 0 0 0 0-73.142858H367.323429a36.571429 36.571429 0 1 0 0 73.142858h109.860571z m181.613714 146.285714a36.571429 36.571429 0 1 0 0-73.142857H367.323429a36.571429 36.571429 0 1 0 0 73.142857h291.474285z"  horiz-adv-x="1024" />
      
      <glyph glyph-name="bidui" unicode="&#59790;" d="M512 857.746286a36.571429 36.571429 0 0 0 36.571429-36.571429V-54.125714a36.571429 36.571429 0 0 0-73.142858 0V821.174857a36.571429 36.571429 0 0 0 36.571429 36.571429zM146.651429 92.16a36.571429 36.571429 0 0 1 36.571428-36.571429h35.84v-73.142857h-35.84a109.714286 109.714286 0 0 0-109.714286 109.714286h73.142858z m257.097142-36.571429v-73.142857H292.352v73.142857H403.748571z m437.394286 730.112a109.714286 109.714286 0 0 0 109.714286-109.714285v-583.826286a109.714286 109.714286 0 0 0-109.714286-109.714286H623.030857v73.142857H841.142857a36.571429 36.571429 0 0 1 36.571429 36.571429V676.059429a36.571429 36.571429 0 0 1-36.571429 36.571428H623.030857v73.142857zM146.285714 264.484571V164.571429H73.142857V264.484571h73.142857z m0 171.885715v-103.204572H73.142857v103.131429h73.142857zM146.285714 603.428571v-102.253714H73.142857V603.428571h73.142857z m72.777143 182.345143v-73.142857h-35.84a36.571429 36.571429 0 0 1-36.571428-36.571428h-73.142858a109.714286 109.714286 0 0 0 109.714286 109.714285h35.84z m184.685714 0v-73.142857H292.352v73.142857H403.748571z"  horiz-adv-x="1024" />
      
      <glyph glyph-name="wenjianqingdan2" unicode="&#59791;" d="M601.673143 822.710857l276.992-276.992V18.285714a73.142857 73.142857 0 0 0-73.142857-73.142857H222.72a73.142857 73.142857 0 0 0-73.142857 73.142857V749.568a73.142857 73.142857 0 0 0 73.142857 73.142857h378.953143z m-51.785143-73.142857H222.72V18.285714h582.802286V492.544H623.177143a73.142857 73.142857 0 0 0-73.142857 73.142857V749.494857zM690.834286 274.285714a36.571429 36.571429 0 0 0 0-73.142857h-361.325715a36.571429 36.571429 0 0 0 0 73.142857h361.325715z m0 146.285715a36.571429 36.571429 0 0 0 0-73.142858h-361.325715a36.571429 36.571429 0 0 0 0 73.142858h361.325715z m-67.803429 277.357714v-132.315429l132.242286 0.073143-132.242286 132.242286z"  horiz-adv-x="1024" />
      
      <glyph glyph-name="shangsheng" unicode="&#59777;" d="M940.397714 634.441143l3.510857-0.512a12.8 12.8 0 0 0 8.777143-15.798857l-71.899428-254.683429a12.8 12.8 0 0 0-21.357715-5.632l-59.757714 59.465143L607.085714 230.326857a43.885714 43.885714 0 0 0-60.196571-0.877714L385.243429 377.563429l-256.073143-250.587429a43.885714 43.885714 0 0 0-56.027429-4.534857l-6.070857 5.12a43.885714 43.885714 0 0 0 0.731429 62.171428l285.769142 279.625143a43.885714 43.885714 0 0 0 60.342858 0.950857l161.645714-148.187428 161.865143 157.110857-62.756572 62.464a12.8 12.8 0 0 0-2.048 2.633143l-1.316571 2.998857a12.8 12.8 0 0 0 8.996571 15.798857l256.731429 70.802286a12.8 12.8 0 0 0 6.875428 0z"  horiz-adv-x="1024" />
      
      <glyph glyph-name="yuechi" unicode="&#59778;" d="M856.32 728.256a230.4 230.4 0 0 0-296.384-350.784L477.184 294.784l109.312-109.44a38.4 38.4 0 1 0-54.272-54.272l-109.376 109.44-36.224-36.224 109.44-109.44a38.4 38.4 0 1 0-54.4-54.272l-109.312 109.44-110.08-110.08a38.4 38.4 0 0 0-54.272 54.336L505.6 431.808a230.464 230.464 0 0 0 350.72 296.448z m-54.336-54.336a153.6 153.6 0 1 1-217.216-217.216 153.6 153.6 0 0 1 217.216 217.216z"  horiz-adv-x="1024" />
      
      <glyph glyph-name="xiajiang" unicode="&#59779;" d="M741.814857 284.672a43.885714 43.885714 0 0 1 61.074286 63.049143L607.085714 537.6a43.885714 43.885714 0 0 1-60.196571 0.877714L385.243429 390.436571 129.170286 641.024A43.885714 43.885714 0 0 1 73.142857 645.558857l-6.070857-5.12a43.885714 43.885714 0 0 1 0.731429-62.171428l285.769142-279.625143a43.885714 43.885714 0 0 1 60.342858-0.950857l161.645714 148.187428 166.253714-161.206857zM674.669714 226.304l184.758857 183.881143a12.8 12.8 0 0 0 21.357715-5.632l71.899428-254.683429a12.8 12.8 0 0 0-15.725714-15.798857L680.228571 204.8a12.8 12.8 0 0 0-5.558857 21.430857z"  horiz-adv-x="1024" />
      
      <glyph glyph-name="tongzhi1" unicode="&#59780;" d="M511.268571 864.182857a43.885714 43.885714 0 0 0 43.885715-43.885714v-32.548572a296.228571 296.228571 0 0 0 256.438857-289.792v-268.434285h-87.771429V496.786286A208.384 208.384 0 0 1 512.731429 702.537143a214.893714 214.893714 0 0 1-212.114286-214.820572v-258.194285h-87.771429v258.194285A302.738286 302.738286 0 0 0 467.382857 786.578286v33.645714a43.885714 43.885714 0 0 0 43.885714 43.885714zM877.933714 171.885714a43.885714 43.885714 0 0 0 0-87.771428H144.676571a43.885714 43.885714 0 0 0 0 87.771428h733.257143z m-255.268571-151.990857l0.146286-1.536a109.714286 109.714286 0 0 0-219.428572 0h219.428572l-0.073143 1.462857z"  horiz-adv-x="1024" />
      
      <glyph glyph-name="shouqi6" unicode="&#59781;" d="M512 384m-512 0a512 512 0 1 1 1024 0 512 512 0 1 1-1024 0ZM512 896a512 512 0 1 0 0-1024A512 512 0 0 0 512 896z m0-73.142857a438.857143 438.857143 0 1 1 0-877.714286A438.857143 438.857143 0 0 1 512 822.857143z m219.428571-365.714286a73.142857 73.142857 0 0 0 0-146.285714H292.571429a73.142857 73.142857 0 1 0 0 146.285714h438.857142z"  horiz-adv-x="1024" />
      
      <glyph glyph-name="bubian" unicode="&#59782;" d="M732.891429 513.462857a12.8 12.8 0 0 0 17.773714 3.657143l184.393143-122.514286a12.8 12.8 0 0 0 0-21.211428l-184.32-123.099429a12.8 12.8 0 0 0-19.894857 10.678857L730.697143 339.894857 114.614857 340.114286a43.885714 43.885714 0 0 0 0 87.771428l616.155429-0.219428V506.441143c0 1.243429 0.219429 2.486857 0.585143 3.657143z"  horiz-adv-x="1024" />
      
      <glyph glyph-name="zhinengtuijian" unicode="&#59783;" d="M107.468664 384.397588a73.086059 73.086059 0 0 0 37.566235-135.793897v-62.269322c0-16.371277 8.112553-31.280833 20.975698-39.101042l324.209757-196.893842c12.278458-7.454778 27.041842-7.454778 39.3203 0l324.209757 196.893842a46.044217 46.044217 0 0 1 21.121871 39.831902l0.950119 50.867897a36.543029 36.543029 0 0 0 73.086059-1.461721l-1.023205-50.137036c0-41.659054-21.194957-80.394665-56.203179-101.589622L567.545405-112.149096a110.506121 110.506121 0 0 0-115.256715 0L128.078933 84.744747a118.69176 118.69176 0 0 0-56.203179 101.589622v61.173031A73.086059 73.086059 0 0 0 107.468664 384.397588z m373.981363 240.014617l179.572447-469.651014H578.800658l-42.755345 117.668555H339.516901l-42.82843-117.668555H214.393568l179.572447 469.651014h87.484012z m287.959072 0v-469.651014H692.522565V624.412205h76.95962zM439.352458 541.532615H436.721359L362.392838 335.649187h150.630367L439.352458 541.532615zM567.545405 878.678604l324.136671-196.893842c35.008222-21.194957 56.276265-59.930568 56.276265-101.589622v-58.615019a73.086059 73.086059 0 1 0-73.086059-1.68098v60.222913a45.605701 45.605701 0 0 1-21.121871 39.174127L529.540654 816.190024a37.420062 37.420062 0 0 1-39.3203 0L166.010597 619.296181a45.605701 45.605701 0 0 1-21.048784-39.174127v-54.960717a36.543029 36.543029 0 1 0-73.086059 0v54.960717c0 41.659054 21.268043 80.394665 56.276265 101.589621L452.215604 878.75169a110.506121 110.506121 0 0 0 115.256715 0z"  horiz-adv-x="1024" />
      
      <glyph glyph-name="openissue" unicode="&#59784;" d="M877.714286 822.637714a109.714286 109.714286 0 0 0 109.714285-109.714285v-513.609143a109.714286 109.714286 0 0 0-109.714285-109.714286H678.619429l-138.313143-168.740571a36.571429 36.571429 0 0 0-46.08-8.777143l-5.412572 3.657143a36.571429 36.571429 0 0 0-5.12 51.492571l149.357715 182.125714a36.571429 36.571429 0 0 0 28.306285 13.385143H877.714286a36.571429 36.571429 0 0 1 36.571428 36.571429V712.923429a36.571429 36.571429 0 0 1-36.571428 36.571428H146.285714a36.571429 36.571429 0 0 1-36.571428-36.571428v-513.609143a36.571429 36.571429 0 0 1 36.571428-36.571429h222.573715a36.571429 36.571429 0 0 0 0-73.142857H146.285714a109.714286 109.714286 0 0 0-109.714285 109.714286V712.923429a109.714286 109.714286 0 0 0 109.714285 109.714285h731.428572z m-369.371429-531.748571c16.091429 0 29.988571-5.12 40.96-15.36 10.24-10.24 16.091429-23.405714 16.091429-39.497143 0-16.091429-5.851429-29.988571-16.822857-40.228571a56.32 56.32 0 0 0-40.228572-15.36c-16.091429 0-29.257143 5.851429-40.228571 16.091428a51.346286 51.346286 0 0 0-16.091429 39.497143c0 16.091429 5.12 29.257143 16.091429 39.497143a56.32 56.32 0 0 0 40.228571 15.36z m13.165714 422.034286c47.542857 0 86.308571-12.434286 115.565715-38.765715 29.257143-25.6 43.885714-60.708571 43.885714-105.325714 0-36.571429-9.508571-66.56-27.062857-89.965714-6.582857-7.314286-27.794286-27.062857-62.902857-57.782857-13.165714-10.971429-22.674286-23.405714-29.257143-36.571429-7.314286-14.628571-10.971429-29.988571-10.971429-47.542857v-10.24H466.651429v10.24c0 27.794286 4.388571 51.931429 14.628571 71.68 9.508571 19.748571 38.034286 50.468571 85.577143 92.891428l8.777143 10.24c13.165714 16.091429 19.748571 33.645714 19.748571 51.931429 0 24.137143-7.314286 43.154286-20.48 57.051429-13.897143 13.897143-33.645714 20.48-58.514286 20.48-32.182857 0-54.857143-9.508571-68.754285-29.988572-12.434286-16.822857-18.285714-40.96-18.285715-71.68H345.965714c0 54.125714 15.36 96.548571 47.542857 127.268572 31.451429 30.72 73.874286 46.08 128 46.08z"  horiz-adv-x="1024" />
      
      <glyph glyph-name="cailiaoqingdan" unicode="&#59785;" d="M847.36 593.773714c-11.556571 78.409143-74.166857 135.314286-148.918857 135.314286a29.184 29.184 0 0 1-20.918857-8.850286 30.793143 30.793143 0 0 1-8.777143-21.504 29.988571 29.988571 0 0 1 29.696-30.281143c45.202286 0 83.090286-35.181714 90.185143-82.944l49.078857-401.261714a217.453714 217.453714 0 0 1-112.64 32.329143 142.043429 142.043429 0 0 1-4.388572 20.333714L669.988571 714.605714C658.505143 792.868571 586.971429 859.062857 512.219429 859.062857c-77.238857 0-156.306286-67.364571-164.059429-144.676571L302.08 222.354286a28.598857 28.598857 0 0 1-5.632 0.512 217.965714 217.965714 0 0 1-115.053714-31.670857l48.274285 394.971428c6.875429 67.291429 89.234286 69.12 90.112 69.12 7.826286 0 15.36 3.145143 20.918858 8.850286a30.793143 30.793143 0 0 1 8.777142 21.504 29.988571 29.988571 0 0 1-29.696 30.281143c-54.857143 0-139.849143-32.914286-148.992-122.88l-60.708571-495.762286a125.659429 125.659429 0 0 1-3.218286-28.013714v-1.024c0.292571-84.699429 85.211429-153.6 189.586286-153.6 41.325714 0 79.286857 9.728 109.421714 27.794285 28.452571 16.676571 49.371429 36.425143 62.098286 58.660572a30.793143 30.793143 0 0 1 2.925714 23.478857c25.892571-4.315429 52.297143-4.681143 78.262857-1.170286a30.866286 30.866286 0 0 1 2.048-30.061714c14.848-22.893714 35.474286-42.130286 61.44-57.344 31.890286-18.139429 69.632-27.721143 109.129143-27.721143 58.441143 0 112.566857 21.211429 148.626286 58.148572 26.404571 27.062857 40.96 61.147429 40.96 95.963428l-0.073143 3.218286a30.134857 30.134857 0 0 1-0.073143 6.948571l-63.780571 521.216z m-335.140571 204.8c44.397714 0 90.550857-37.156571 97.426285-84.114285l39.789715-384.146286a241.517714 241.517714 0 0 1-135.68 40.228571c-53.101714 0-101.741714-16.091429-139.117715-42.642285l33.865143 386.56c4.681143 46.884571 57.051429 84.114286 103.716572 84.114285zM375.954286-5.12c-21.357714-12.8-48.859429-19.602286-79.725715-19.602286-69.778286 0-128.877714 41.837714-130.194285 91.721143l2.340571 19.017143c11.702857 42.715429 65.536 76.214857 127.926857 76.214857a29.842286 29.842286 0 0 1 8.192 1.097143c12.653714-55.222857 57.051429-101.376 117.101715-125.074286a29.257143 29.257143 0 0 1-4.973715-6.582857c-7.314286-12.8-21.211429-25.453714-40.667428-36.790857z m-15.798857 200.850286c0 61.805714 70.290286 114.102857 153.526857 114.102857 70.436571 0 131.657143-37.449143 148.772571-86.454857l3.437714-28.233143a29.769143 29.769143 0 0 1 1.097143-5.266286c-4.242286-59.245714-72.704-108.251429-153.307428-108.251428-83.236571 0-153.6 52.224-153.6 114.102857z m361.545142-226.816c-29.476571 0-57.270857 6.948571-80.018285 19.821714a119.954286 119.954286 0 0 0-41.252572 38.107429 29.476571 29.476571 0 0 1-6.363428 7.021714c63.049143 21.211429 111.104 66.56 126.902857 122.002286h0.731428c70.509714 0 130.194286-42.788571 130.194286-93.549715 0-23.917714-12.8-42.130286-23.552-53.174857-24.649143-25.161143-64.512-40.228571-106.642286-40.228571z"  horiz-adv-x="1024" />
      
      <glyph glyph-name="gongyijiegou" unicode="&#59786;" d="M73.362286 274.066286a73.142857 73.142857 0 0 1 73.142857-73.142857h219.428571a73.142857 73.142857 0 0 1 73.142857 73.142857v73.142857h36.059429v-219.428572a36.571429 36.571429 0 0 1 36.571429-36.571428h73.142857v-73.142857a73.142857 73.142857 0 0 1 73.142857-73.142857h219.428571a73.142857 73.142857 0 0 1 73.142857 73.142857v219.428571a73.142857 73.142857 0 0 1-73.142857 73.142857h-219.428571a73.142857 73.142857 0 0 1-73.142857-73.142857v-73.142857h-36.571429v438.857143h36.571429v-73.142857a73.142857 73.142857 0 0 1 73.142857-73.142857h219.428571a73.142857 73.142857 0 0 1 73.142857 73.142857v219.428571a73.142857 73.142857 0 0 1-73.142857 73.142857h-219.428571a73.142857 73.142857 0 0 1-73.142857-73.142857v-73.142857h-73.142857a36.571429 36.571429 0 0 1-36.571429-36.571429v-219.428571h-36.059429v73.142857a73.142857 73.142857 0 0 1-73.142857 73.142857h-219.428571a73.142857 73.142857 0 0 1-73.142857-73.142857v-219.428571z m584.704 256v219.428571h219.428571v-219.428571h-219.428571z m0-512v219.428571h219.428571v-219.428571h-219.428571z m-511.561143 256v219.428571h219.428571v-219.428571h-219.428571z"  horiz-adv-x="1024" />
      
      <glyph glyph-name="baogongjilu2" unicode="&#59787;" d="M622.153143 823.442286a73.142857 73.142857 0 0 0 68.900571-48.420572l2.340572-7.826285h2.779428a73.142857 73.142857 0 0 0 70.656-54.052572h1.170286A109.714286 109.714286 0 0 0 877.714286 603.428571v-549.229714a109.714286 109.714286 0 0 0-109.714286-109.714286H256a109.714286 109.714286 0 0 0-109.714286 109.714286V603.428571a109.714286 109.714286 0 0 0 109.714286 109.714286h2.779429a73.142857 73.142857 0 0 0 70.656 54.125714h2.121142l2.340572 7.753143c9.216 25.6 32.402286 44.690286 60.342857 47.981715l8.557714 0.438857h219.282286zM258.267429 640H256a36.571429 36.571429 0 0 1-36.571429-36.571429v-549.229714a36.571429 36.571429 0 0 1 36.571429-36.571428H768a36.571429 36.571429 0 0 1 36.571429 36.571428V603.428571a36.571429 36.571429 0 0 1-36.571429 36.571429c-8.045714-32.402286-37.156571-56.539429-71.826286-56.539429H329.508571A73.142857 73.142857 0 0 0 258.194286 640z m293.010285-442.294857a36.571429 36.571429 0 0 0 0-73.142857H329.508571a36.571429 36.571429 0 1 0 0 73.142857h221.769143z m139.556572 146.285714a36.571429 36.571429 0 0 0 0-73.142857h-361.325715a36.571429 36.571429 0 1 0 0 73.142857h361.325715z m0 146.285714a36.571429 36.571429 0 0 0 0-73.142857h-361.325715a36.571429 36.571429 0 1 0 0 73.142857h361.325715z m-68.681143 260.022858H402.870857v-19.675429a36.571429 36.571429 0 0 0-36.571428-36.571429h-36.790858l0.146286-14.994285V676.571429l-0.219428-2.486858v-17.554285h366.738285l-0.146285 17.846857V676.571429l0.073142 2.194285 0.073143 15.36h-37.449143a36.571429 36.571429 0 0 0-36.571428 36.571429v19.602286z"  horiz-adv-x="1024" />
      
      <glyph glyph-name="gongyi" unicode="&#59774;" d="M522.666667 829.141333l369.493333-213.333333a21.333333 21.333333 0 0 0 10.666667-18.474667v-426.666666a21.333333 21.333333 0 0 0-10.666667-18.474667l-369.493333-213.333333a21.333333 21.333333 0 0 0-21.333334 0l-369.493333 213.333333A21.333333 21.333333 0 0 0 121.173333 170.666667V597.333333a21.333333 21.333333 0 0 0 10.666667 18.474667l369.493333 213.333333a21.333333 21.333333 0 0 0 21.333334 0zM512 786.048L163.797333 585.002667v-401.962667L512-18.005333l348.16 201.045333V585.002667L512 786.048z m207.701333-301.397333c47.018667-81.450667 40.576-181.930667-35.925333-264.576l-9.472 4.778666c-0.981333 0.896-0.981333 0.896-1.962667 1.962667l-1.365333 1.749333-0.682667 0.981334-0.554666 0.938666-0.426667 0.682667-0.853333 1.493333-1.664 2.816-0.725334 1.194667-7.168 12.373333-2.901333 4.992-23.466667 40.576c-1.493333 2.688-3.114667 5.461333-4.778666 8.32l-22.058667 38.4-19.626667 34.048-3.84 6.698667-111.530666-64.426667 3.84-6.656 13.44-23.168 17.92-30.976 5.418666-9.344 38.784-67.2 2.218667-3.84 3.712-6.528 0.896-1.578666 0.853333-1.536 0.426667-0.725334 0.512-0.981333a24.021333 24.021333 0 0 0 1.578667-4.010667c0.085333-0.213333 0.128-0.341333 0.128-0.682666v-1.621334c-0.042667-1.664-0.256-4.778667-0.597334-11.050666l-17.706666-13.781334a234.666667 234.666667 0 1 0 177.578666 350.677334zM420.48 533.589333a192 192 0 0 1-70.272-262.272c34.944-60.544 99.072-96.256 153.6-106.410666l6.570667-1.066667-36.010667 62.293333-5.376 9.344-17.92 30.976-28.032 48.341334a21.333333 21.333333 0 0 0 7.765333 29.184l148.565334 85.76a21.333333 21.333333 0 0 0 29.141333-7.850667l34.133333-59.306667 22.101334-38.314666 4.778666-8.32 19.285334-33.365334 1.450666 2.986667a192 192 0 0 1-2.944 169.344l-4.565333 8.405333a192 192 0 0 1-262.272 70.272zM580.491079 256.416955m36.950417 21.333333a42.666667 42.666667 0 1 1-73.900834-42.666667 42.666667 42.666667 0 1 1 73.900834 42.666667Z"  horiz-adv-x="1024" />
      
      <glyph glyph-name="wenjian1" unicode="&#59775;" d="M598.381714 822.857143l276.992-276.992v-527.433143a73.142857 73.142857 0 0 0-73.142857-73.142857H219.428571a73.142857 73.142857 0 0 0-73.142857 73.142857V749.714286a73.142857 73.142857 0 0 0 73.142857 73.142857h378.953143z m-51.785143-73.142857H219.428571v-731.282286h582.802286V492.690286H619.812571a73.142857 73.142857 0 0 0-73.142857 73.142857L546.596571 749.714286z m144.969143-511.853715a36.571429 36.571429 0 0 0 0-73.142857h-365.714285a36.571429 36.571429 0 1 0 0 73.142857h365.714285z m0 146.285715a36.571429 36.571429 0 0 0 0-73.142857h-365.714285a36.571429 36.571429 0 1 0 0 73.142857h365.714285z m-71.826285 313.929143v-132.315429l132.242285 0.073143-132.242285 132.242286z"  horiz-adv-x="1024" />
      
      <glyph glyph-name="zhankai6" unicode="&#59776;" d="M512 384m-512 0a512 512 0 1 1 1024 0 512 512 0 1 1-1024 0ZM512 896a512 512 0 1 0 0-1024A512 512 0 0 0 512 896z m0-73.142857a438.857143 438.857143 0 1 1 0-877.714286A438.857143 438.857143 0 0 1 512 822.857143z m0-146.285714a73.142857 73.142857 0 0 0 73.142857-73.142858v-146.285714h146.285714a73.142857 73.142857 0 0 0 0-146.285714H585.142857v-146.285714a73.142857 73.142857 0 0 0-146.285714 0V310.857143H292.571429a73.142857 73.142857 0 1 0 0 146.285714h146.285714V603.428571a73.142857 73.142857 0 0 0 73.142857 73.142858z"  horiz-adv-x="1024" />
      
      <glyph glyph-name="qiye" unicode="&#59773;" d="M831.829333 26.794667v698.026666L733.866667 790.186667l-356.693334-159.146667V507.733333l-197.12-68.608v-412.330666h-20.138666v-48.981334h64.341333V410.453333l261.461333 85.76v-518.4h181.077334v53.077334h-40.277334v473.6L531.712 561.493333l-106.24-37.034666V602.453333L682.922667 716.8v-738.901333h181.077333v49.066666h-32.170667zM256.512 300.373333l189.098667 61.269334v81.578666l-189.098667-65.28v-77.568z m0-106.154666l189.098667 40.874666v81.664l-189.098667-49.066666v-73.386667z m0-110.165334l189.098667 24.490667v81.664l-189.098667-28.586667v-77.568z m0-106.069333l189.098667 4.096v81.578667l-189.098667-8.192v-77.482667z"  horiz-adv-x="1024" />
      
      <glyph glyph-name="a-bianzu31" unicode="&#59772;" d="M342.71232 792.69888A442.368 442.368 0 1 0 512-58.368a440.23808 440.23808 0 0 0-202.71104 49.07008l-15.44192 7.94624-206.76608-42.35264L135.65952 150.528l-9.54368 17.03936A440.32 440.32 0 0 0 69.632 384a442.368 442.368 0 0 0 273.08032 408.69888zM512 220.16a40.96 40.96 0 1 1 0-81.92 40.96 40.96 0 0 1 0 81.92z m0 409.6a40.96 40.96 0 0 1-40.96-40.96v-286.72a40.96 40.96 0 0 1 81.92 0v286.72a40.96 40.96 0 0 1-40.96 40.96z"  horiz-adv-x="1024" />
      
      <glyph glyph-name="a-bianzu2" unicode="&#59771;" d="M501.333333 829.141333a21.333333 21.333333 0 0 0 21.333334 0l369.493333-213.333333a21.333333 21.333333 0 0 0 10.666667-18.474667v-426.666666a21.333333 21.333333 0 0 0-10.666667-18.474667l-369.493333-213.333333a21.333333 21.333333 0 0 0-21.333334 0l-369.493333 213.333333A21.333333 21.333333 0 0 0 121.173333 170.666667V597.333333a21.333333 21.333333 0 0 0 10.666667 18.474667l369.493333 213.333333z m10.666667-43.093333L163.797333 585.002667v-401.962667L512-18.005333l348.16 201.045333V585.002667L512 786.048zM399.146667 570.538667a234.666667 234.666667 0 0 0 306.432-342.272l-18.773334-8.661334-12.416 5.248-2.346666 2.346667-1.237334 1.578667-88.576 153.301333-111.530666-64.426667 80.256-138.88 7.125333-12.458666 1.877333-4.096c0.170667-0.554667 0.298667-0.853333 0.341334-1.706667v-11.264l-18.176-15.274667A234.666667 234.666667 0 0 0 399.146667 570.538667z m283.605333-107.221334a192 192 0 1 1-332.544-192c34.944-60.544 99.072-96.256 153.216-107.52l7.850667-1.536-88.234667 152.533334a21.333333 21.333333 0 0 0 7.765333 29.184l148.565334 85.76a21.333333 21.333333 0 0 0 29.141333-7.850667l80.298667-139.306667 1.450666 2.986667a192 192 0 0 1-2.944 169.344l-4.565333 8.405333z m-123.605333-169.898666a42.666667 42.666667 0 1 0 42.666666-73.941334 42.666667 42.666667 0 0 0-42.666666 73.941334z"  horiz-adv-x="1024" />
      
      <glyph glyph-name="lijizhihang1" unicode="&#59770;" d="M512 822.857143a438.857143 438.857143 0 1 0 0-877.714286A438.857143 438.857143 0 0 0 512 822.857143z m0-73.142857a365.714286 365.714286 0 1 1 0-731.428572A365.714286 365.714286 0 0 1 512 749.714286z m-61.586286-147.236572l241.225143-193.024a32.621714 32.621714 0 0 0 0-50.907428L450.413714 165.522286a32.621714 32.621714 0 0 0-52.955428 25.526857V576.950857c0 27.355429 31.597714 42.569143 52.955428 25.526857z m20.187429-109.933714v-217.161143L606.354286 384 470.601143 492.544z"  horiz-adv-x="1024" />
      
      <glyph glyph-name="shanchu9-copy" unicode="&#59802;" d="M542.122667 896a512 512 0 1 0 0-1024 512 512 0 0 0 0 1024z m0-85.333333a426.666667 426.666667 0 1 1 0-853.333334 426.666667 426.666667 0 0 1 0 853.333334z m248.746666-385.536a42.666667 42.666667 0 0 0 41.984-34.986667l0.682667-7.68a42.666667 42.666667 0 0 0-42.666667-42.666667H303.786667a42.666667 42.666667 0 0 0-41.984 34.986667l-0.682667 7.68a42.666667 42.666667 0 0 0 42.666667 42.666667h487.082666z"  horiz-adv-x="1109" />
      
      <glyph glyph-name="shanchu9" unicode="&#59768;" d="M542.122667 896a512 512 0 1 0 0-1024 512 512 0 0 0 0 1024z m0-85.333333a426.666667 426.666667 0 1 1 0-853.333334 426.666667 426.666667 0 0 1 0 853.333334z m248.746666-385.536a42.666667 42.666667 0 0 0 41.984-34.986667l0.682667-7.68a42.666667 42.666667 0 0 0-42.666667-42.666667H303.786667a42.666667 42.666667 0 0 0-41.984 34.986667l-0.682667 7.68a42.666667 42.666667 0 0 0 42.666667 42.666667h487.082666z"  horiz-adv-x="1109" />
      
      <glyph glyph-name="tianjia3" unicode="&#59769;" d="M542.122667 896a512 512 0 1 0 0-1024 512 512 0 0 0 0 1024z m0-85.333333a426.666667 426.666667 0 1 1 0-853.333334 426.666667 426.666667 0 0 1 0 853.333334z m5.205333-141.994667a42.666667 42.666667 0 0 0 42.666667-42.666667v-200.874666h200.874666a42.666667 42.666667 0 0 0 41.984-34.986667l0.682667-7.68a42.666667 42.666667 0 0 0-42.666667-42.666667H589.909333l0.085334-200.874666a42.666667 42.666667 0 0 0-34.986667-41.984l-7.68-0.682667a42.666667 42.666667 0 0 0-42.666667 42.666667V339.88266699999997l-200.874666-0.085334a42.666667 42.666667 0 0 0-41.984 34.986667l-0.682667 7.68a42.666667 42.666667 0 0 0 42.666667 42.666667h200.874666V626.0053330000001a42.666667 42.666667 0 0 0 34.986667 41.984l7.68 0.682667z"  horiz-adv-x="1109" />
      
      <glyph glyph-name="chenggong2" unicode="&#59764;" d="M512 384m-512 0a512 512 0 1 1 1024 0 512 512 0 1 1-1024 0ZM670.037333 545.962667a47.957333 47.957333 0 1 0 67.925334-67.925334l-256-256a47.957333 47.957333 0 0 0-67.925334 0l-128 128a47.957333 47.957333 0 1 0 67.925334 67.925334L448 323.925333l222.037333 222.037334z"  horiz-adv-x="1024" />
      
      <glyph glyph-name="duankai" unicode="&#59765;" d="M512 384m-512 0a512 512 0 1 1 1024 0 512 512 0 1 1-1024 0ZM815.445333 384c0-26.453333-21.504-48.042667-48.042666-48.042667H256.938667a48.042667 48.042667 0 0 0 0 96h510.464c26.453333 0 48.042667-21.418667 48.042666-47.957333z"  horiz-adv-x="1024" />
      
      <glyph glyph-name="shibai1" unicode="&#59766;" d="M512 364.307692m-472.615385 0a472.615385 472.615385 0 1 1 945.23077 0 472.615385 472.615385 0 1 1-945.23077 0ZM428.504615 531.377231L512 447.881846l83.495385 83.495385a59.076923 59.076923 0 1 0 83.574153-83.495385L595.574154 364.307692l83.495384-83.495384a59.076923 59.076923 0 1 0-83.495384-83.574154L512 280.733538l-83.495385-83.495384a59.076923 59.076923 0 1 0-83.574153 83.495384L428.425846 364.307692l-83.495384 83.495385a59.076923 59.076923 0 1 0 83.495384 83.574154z"  horiz-adv-x="1024" />
      
      <glyph glyph-name="jingshi" unicode="&#59767;" d="M512 836.923077a472.615385 472.615385 0 1 0 0-945.230769 472.615385 472.615385 0 0 0 0 945.230769z m0-78.769231a393.846154 393.846154 0 1 1 0-787.692308 393.846154 393.846154 0 0 1 0 787.692308z m0-266.948923a47.261538 47.261538 0 0 0 47.261538-47.261538v-315.628308a47.261538 47.261538 0 1 0-94.523076 0V443.943385a47.261538 47.261538 0 0 0 47.261538 47.261538z m0 157.538462a47.261538 47.261538 0 1 0 0-94.523077 47.261538 47.261538 0 0 0 0 94.523077z"  horiz-adv-x="1024" />
      
      <glyph glyph-name="fanhuijiantou" unicode="&#59762;" d="M639.268571 717.604571a36.571429 36.571429 0 0 0 51.712-51.638857L410.477714 384.877714l280.649143-282.916571a36.571429 36.571429 0 0 0 4.022857-46.665143l-4.315428-5.12a36.571429 36.571429 0 0 0-51.712 0.292571L332.873143 359.131429a36.571429 36.571429 0 0 0 0.146286 51.565714l306.176 306.907428z"  horiz-adv-x="1024" />
      
      <glyph glyph-name="chakanjilu" unicode="&#59763;" d="M601.673143 822.710857l276.992-276.992V18.285714a73.142857 73.142857 0 0 0-73.142857-73.142857H222.72a73.142857 73.142857 0 0 0-73.142857 73.142857V749.568a73.142857 73.142857 0 0 0 73.142857 73.142857h378.953143z m-51.785143-73.142857H222.72V18.285714h582.802286V492.544H623.177143a73.142857 73.142857 0 0 0-73.142857 73.142857V749.494857z m205.385143-183.881143L623.030857 697.929143v-132.315429l132.242286 0.073143zM659.236571 326.217143a36.571429 36.571429 0 1 0 0-73.142857H329.142857a36.571429 36.571429 0 1 0 0 73.142857h330.166857zM329.142857 179.931429l254.171429-0.950858a36.571429 36.571429 0 0 0-0.292572-73.142857l-254.098285 0.950857a36.571429 36.571429 0 0 0 0.292571 73.142858z"  horiz-adv-x="1024" />
      
      <glyph glyph-name="shujuzhuizong" unicode="&#59760;" d="M512 896c282.763636 0 512-229.236364 512-512s-229.236364-512-512-512S0 101.236364 0 384 229.236364 896 512 896z m0-139.636364a372.363636 372.363636 0 1 1 0-744.727272 372.363636 372.363636 0 0 1 0 744.727272z m0-186.181818a186.181818 186.181818 0 1 0 0-372.363636 186.181818 186.181818 0 0 0 0 372.363636z"  horiz-adv-x="1024" />
      
      <glyph glyph-name="yingyongbaobiao" unicode="&#59761;" d="M1024 849.454545v-102.912h-68.980364v-580.282181c0-26.530909-20.340364-48.360727-46.545454-51.153455l-5.678546-0.279273h-306.129454l173.149091-169.890909L695.994182-128 512 52.642909 327.959273-128l-73.728 72.890182 173.102545 169.937454H121.204364a51.991273 51.991273 0 0 0-51.944728 45.847273l-0.279272 5.585455L68.887273 746.589091H0V849.454545h1024z m-173.474909-102.912H173.474909v-528.756363h677.050182V746.496z m-109.381818-56.738909l73.867636-72.843636-302.359273-297.332364-102.632727 98.490182-130.653091-125.207273-72.890182 73.774546 203.636364 195.025454 101.655273-97.512727 229.422545 225.605818z"  horiz-adv-x="1024" />
      
      <glyph glyph-name="_back2top" unicode="&#59759;" d="M128 810.666667m384 0l0 0q384 0 384-384l0 0q0-384-384-384l0 0q-384 0-384 384l0 0q0 384 384 384ZM501.632 516.906667a16 16 0 1 0 32 0V256a16 16 0 0 0-32 0V516.906667zM618.453333 394.304l-100.906666 100.906667-100.906667-100.906667a16 16 0 0 0-22.613333 22.634667l112.213333 112.213333a16 16 0 0 0 22.613333 0l112.213334-112.213333a16 16 0 1 0-22.613334-22.613334zM405.333333 608.64h224.426667a16 16 0 0 0 0-32H405.333333a16 16 0 0 0 0 32z"  horiz-adv-x="1024" />
      
      <glyph glyph-name="weiguanzhu" unicode="&#59756;" d="M197.952 654.72l4.032 3.584c65.664 59.904 168.32 60.672 235.008 3.776l8.896-8.128L512.768 588.16l65.28 64.256c63.296 62.08 166.016 66.56 234.752 12.16l13.184-11.456c87.68-79.936 93.44-210.112 15.04-296.448l-9.088-9.472-37.376-36.416-228.864-225.6a75.84 75.84 0 0 0-98.56-5.76l-6.4 5.696-268.864 263.68a208.128 208.128 0 0 0-3.264 296.768l9.344 9.088z m203.072-46.4c-39.424 38.72-104.192 42.112-147.968 9.28l-8.192-6.848-3.776-3.328c-60.992-55.68-65.344-144.576-12.032-204.928l7.616-8.064 268.864-263.68c3.008-2.944 8.576-3.52 12.544-1.728l2.688 1.728 229.12 225.92 37.248 36.224c58.752 57.664 59.584 146.56 3.968 204.928l-7.936 7.808-4.352 3.84c-40.832 37.312-105.792 38.4-148.16 4.16l-7.68-6.848-110.208-108.352-111.744 109.888z"  horiz-adv-x="1024" />
      
      <glyph glyph-name="yiguanzhu" unicode="&#59758;" d="M825.984 653.12l-3.968 3.648c-68.48 62.528-177.792 60.608-243.904-4.352L512.768 588.16 445.888 653.952c-66.112 64.96-175.296 66.944-243.84 4.352l-4.096-3.648c-90.88-82.88-93.568-219.776-6.08-305.92l268.8-263.68c28.8-28.16 76.416-28.032 104.96 0.128l228.928 225.6 37.376 36.48c87.68 86.08 84.992 222.976-5.952 305.92z"  horiz-adv-x="1024" />
      
      <glyph glyph-name="gengduo3" unicode="&#59757;" d="M146.304 384m-73.152 0a73.152 73.152 0 1 1 146.304 0 73.152 73.152 0 1 1-146.304 0ZM512 382.784m-73.152 0a73.152 73.152 0 1 1 146.304 0 73.152 73.152 0 1 1-146.304 0ZM877.696 382.784m-73.152 0a73.152 73.152 0 1 1 146.304 0 73.152 73.152 0 1 1-146.304 0Z"  horiz-adv-x="1024" />
      
      <glyph glyph-name="jiqiren" unicode="&#59755;" d="M877.714286 530.285714v-512h-731.428572V530.285714h731.428572z m-73.142857-73.142857h-585.142858v-365.714286h585.142858V457.142857zM384 256m-73.142857 0a73.142857 73.142857 0 1 1 146.285714 0 73.142857 73.142857 0 1 1-146.285714 0ZM36.571429 384h73.142857v-292.571429H36.571429zM914.285714 384h73.142857v-292.571429h-73.142857zM475.428571 676.571429h73.142858v-219.428572H475.428571zM640 256m-73.142857 0a73.142857 73.142857 0 1 1 146.285714 0 73.142857 73.142857 0 1 1-146.285714 0ZM512 676.571429m-73.142857 0a73.142857 73.142857 0 1 1 146.285714 0 73.142857 73.142857 0 1 1-146.285714 0Z"  horiz-adv-x="1024" />
      
      <glyph glyph-name="APP_guanlian" unicode="&#59754;" d="M696.32 896C914.797714 896 1024 786.797714 1024 568.32v-368.64C1024-18.797714 914.797714-128 696.32-128H327.68C109.202286-128 0-18.797714 0 199.68V568.32C0 786.797714 109.202286 896 327.68 896h368.64z m0-73.142857H327.68C149.650286 822.857143 73.142857 746.349714 73.142857 568.32v-368.64C73.142857 21.650286 149.650286-54.857143 327.68-54.857143h368.64C874.349714-54.857143 950.857143 21.650286 950.857143 199.68V568.32C950.857143 746.349714 874.349714 822.857143 696.32 822.857143zM278.674286 318.171429h92.16v-90.697143c-31.451429-5.12-62.902857-10.24-92.16-14.628572V318.171429z m92.16 295.497142V522.971429H278.674286V613.668571h92.16zM278.674286 466.651429h92.16v-92.16H278.674286V466.651429zM487.131429 186.514286l-4.388572 58.514285-53.394286-8.777142V613.668571h28.525715v61.44H182.125714v-61.44h35.84v-410.331428c-15.36-2.194286-29.988571-4.388571-43.154285-5.851429l13.897142-63.634285c51.2 9.508571 114.834286 20.48 182.125715 31.451428v-131.657143h58.514285V176.274286l57.782858 10.24z m356.205714 125.805714v61.44H674.377143c0.731429 9.508571 0.731429 19.017143 0.731428 27.794286V492.982857h144.091429v62.171429H727.771429c22.674286 34.377143 48.274286 77.531429 70.948571 118.491428l-69.485714 19.017143c-16.091429-41.691429-45.348571-98.742857-70.948572-137.508571H569.782857l55.588572 29.988571c-13.165714 30.72-43.154286 74.605714-72.411429 108.251429l-55.588571-27.062857c28.525714-33.645714 57.051429-79.725714 70.948571-111.177143H479.817143v-62.171429h126.537143v-89.965714c0-8.777143 0-19.017143-0.731429-29.257143H462.994286v-61.44H599.771429c-12.434286-77.531429-51.2-166.765714-165.302858-236.982857 16.822857-11.702857 40.228571-33.645714 50.468572-48.274286 85.577143 56.32 133.12 123.611429 158.72 189.44 37.302857-81.188571 91.428571-144.822857 164.571428-181.394286 9.508571 16.822857 29.257143 43.154286 44.617143 55.588572-89.234286 38.034286-151.405714 121.417143-182.125714 221.622857h172.617143z"  horiz-adv-x="1024" />
      
      <glyph glyph-name="gaizhang" unicode="&#59753;" d="M192 166.72l0.064 89.92c0 19.52 14.592 35.968 33.92 38.4 84.736 10.688 146.752 16 186.176 16 18.432 0 18.304 87.168 18.304 126.912 0 39.808-98.048 73.28-98.048 213.12S433.984 832 518.4 832c84.416 0 176.32-41.088 176.32-180.928S597.184 488.96 597.184 437.952c0-51.008 0-126.848 15.616-126.848 39.232 0 100.992-5.376 185.408-16.064a38.72 38.72 0 0 0 33.792-38.4v-89.92c0-21.376-17.28-38.72-38.72-38.72h-562.56A38.656 38.656 0 0 0 192 166.72zM805.312 64c14.72 0 26.688-14.336 26.688-32s-11.968-32-26.688-32H218.688c-14.72 0-26.688 14.336-26.688 32s11.968 32 26.688 32h586.624z"  horiz-adv-x="1024" />
      
      <glyph glyph-name="shanchu8" unicode="&#59752;" d="M512 0A384 384 0 1 1 512 768a384 384 0 0 1 0-768zM610.048 527.36a32 32 0 0 0 45.248-45.312l-241.344-241.344a32 32 0 1 0-45.248 45.248l241.344 241.344zM368.64 527.36a32 32 0 0 0 45.312 0l241.344-241.408a32 32 0 0 0-45.248-45.248L368.704 482.048a32 32 0 0 0 0 45.248z"  horiz-adv-x="1024" />
      
      <glyph glyph-name="APP_yuqiyujing" unicode="&#59749;" d="M795.1872 342.5664a64 64 0 0 0 23.808-23.808L1001.28-0.256a64 64 0 0 0-55.552-95.7568H581.1328a64 64 0 0 0-55.5776 95.744l182.2976 319.0144a64 64 0 0 0 87.3216 23.808zM512 880c273.9328 0 496-222.0672 496-496a48 48 0 0 0-96 0C912 604.9152 732.9152 784 512 784S112 604.9152 112 384c0-165.7344 101.7344-312.4864 253.3376-372.2752a48 48 0 0 0-35.2128-89.3056C142.1312-3.456 16 178.5088 16 384 16 657.9328 238.0672 880 512 880zM768 160a32 32 0 0 1-32-32v-128a32 32 0 1 1 64 0V128a32 32 0 0 1-32 32z m0 96a32 32 0 1 1 0-64 32 32 0 0 1 0 64zM512 614.6432a48 48 0 0 0 48-48V384a48 48 0 0 0-8.192-26.816l-86.144-127.9104a48 48 0 0 0-79.6288 53.632l77.952 115.7632 0.0128 167.9744a48 48 0 0 0 43.3792 47.7824l4.6208 0.2176z"  horiz-adv-x="1024" />
      
      <glyph glyph-name="APP_xinzengyujing" unicode="&#59750;" d="M768 352c123.712 0 224-100.288 224-224S891.712-96 768-96 544 4.288 544 128 644.288 352 768 352zM483.3152 880c222.3616 0 402.624-180.2624 402.624-402.624l0.0128-86.5664a286.2976 286.2976 0 0 1-96 24.3712l-0.0128 62.1952c0 169.344-137.28 306.624-306.624 306.624-169.344 0-306.624-137.28-306.624-306.624L176.6784 32l319.7184-0.0128a287.8208 287.8208 0 0 1 56.9472-96L48-64a48 48 0 0 0 0 96h32.6784V477.376C80.6912 699.7376 260.9664 880 483.328 880zM768 288a32 32 0 0 1-32-32v-96H640a32 32 0 0 1-31.936-29.9008L608 128a32 32 0 0 1 32-32h96V0a32 32 0 0 1 29.9008-31.936L768-32a32 32 0 0 1 32 32v96H896a32 32 0 0 1 31.936 29.9008L928 128a32 32 0 0 1-32 32h-96V256a32 32 0 0 1-29.9008 31.936L768 288z m-278.8992 384v-249.3184H608l-62.6944-112.0384c-21.44-26.112-38.4-56.0896-49.6384-88.704L443.1104 128V365.9264H320L489.1008 672z"  horiz-adv-x="1024" />
      
      <glyph glyph-name="APP_chulizhongyujing" unicode="&#59751;" d="M226.4576 848a48 48 0 0 0 0-96H192c-8.832 0-16-7.168-16-16V0c0-8.832 7.168-16 16-16h640c8.832 0 16 7.168 16 16V736c0 8.832-7.168 16-16 16h-31.0528a48 48 0 0 0 0 96H832a112 112 0 0 0 112-112V0A112 112 0 0 0 832-112H192A112 112 0 0 0 80 0V736A112 112 0 0 0 192 848h34.4576zM320 448a64 64 0 1 0 0-128 64 64 0 0 0 0 128z m384 0a64 64 0 1 0 0-128 64 64 0 0 0 0 128z m-192 0a64 64 0 1 0 0-128 64 64 0 0 0 0 128zM640 881.024a64 64 0 0 0 64-64v-34.24a64 64 0 0 0-64-64H384a64 64 0 0 0-64 64V817.024a64 64 0 0 0 64 64h256z"  horiz-adv-x="1024" />
      
      <glyph glyph-name="bianlanshouqi" unicode="&#59747;" d="M246.912 561.536a32 32 0 0 1-45.312 0L92.992 452.928a96 96 0 0 1 0-135.744L201.6 208.576a32 32 0 0 1 45.312 45.248L138.24 362.432a32 32 0 0 0 0 45.248l108.672 108.608a32 32 0 0 1 0 45.248zM416 768h512a32 32 0 1 0 0-64H416a32 32 0 0 0 0 64z m0-352h512a32 32 0 1 0 0-64H416a32 32 0 0 0 0 64z m0-352h512a32 32 0 1 0 0-64H416a32 32 0 1 0 0 64z"  horiz-adv-x="1024" />
      
      <glyph glyph-name="bianlanzhankai" unicode="&#59748;" d="M778.24 561.536a32 32 0 0 0 45.312 0L932.16 452.928a96 96 0 0 0 0-135.744L823.552 208.576a32 32 0 0 0-45.312 45.248l108.672 108.608a32 32 0 0 1 0 45.248L778.24 516.288a32 32 0 0 0 0 45.248zM96 768h512a32 32 0 0 0 0-64H96a32 32 0 0 0 0 64z m0-352h512a32 32 0 0 0 0-64H96a32 32 0 0 0 0 64z m0-352h512a32 32 0 1 0 0-64H96a32 32 0 1 0 0 64z"  horiz-adv-x="1024" />
      
      <glyph glyph-name="yichang3" unicode="&#59746;" d="M669.92-128l-152.608 60.768 207.936 426.672L1024 158.72V-128zM176 504.288l341.328-180.704v-381.488L176 122.8zM176 504.272l341.328-180.704 341.344 180.704-341.344 180.704zM858.688 504.288L517.36 323.584v-381.488l341.328 180.704zM628.256 382.304v-257.52l110.928 64V441.024zM288.144 563.648l339.728-181.552 108.288 57.328 3.04 1.904-338.976 181.664zM352 652.8C352 742.928 425.072 816 515.2 816c90.128 0 163.2-73.072 163.2-163.2 0-70.4-44.576-130.384-107.04-153.28 2.512 6.608 3.872 13.76 3.872 21.248 0 16.176-6.4 30.864-16.8 41.648a100.16 100.16 0 1 1-86.4-0.016 59.792 59.792 0 0 1-16.8-41.632c0-7.488 1.376-14.656 3.888-21.28C396.608 522.368 352 582.368 352 652.8zM551.232 520.768a36 36 0 1 0-72 0 36 36 0 0 0 72 0zM474.352 685.296a41.344 41.344 0 0 0 81.76 0l-13.312-88.8a27.872 27.872 0 0 0-55.12 0l-13.328 88.8z"  horiz-adv-x="1024" />
      
      <glyph glyph-name="bianzu10" unicode="&#59745;" d="M861.312 796.352L116.224 555.648a75.584 75.584 0 0 1-16.896-136L286.72 302.272c26.112-16.384 59.52-15.232 84.48 2.816l152.448 110.4a38.272 38.272 0 0 0 53.44-53.44L465.664 208c-17.536-24.192-19.2-56.384-4.16-82.24l106.688-184.128a75.584 75.584 0 0 1 137.024 13.76l251.008 744.832a75.584 75.584 0 0 1-94.912 96z"  horiz-adv-x="1024" />
      
      <glyph glyph-name="a-10xbianzu24" unicode="&#59744;" d="M512 384m-512 0a512 512 0 1 1 1024 0 512 512 0 1 1-1024 0ZM512 436.394667c55.864889 0 101.148444 45.568 101.148444 101.831111C613.148444 594.403556 567.864889 640 512 640s-101.148444-45.568-101.148444-101.802667 45.283556-101.802667 101.148444-101.802666zM372.764444 156.444444h278.471112a85.333333 85.333333 0 0 1 84.935111 93.582223c-2.218667 22.812444-5.489778 38.314667-9.841778 46.506666a118.983111 118.983111 0 0 1-53.048889 50.830223c-25.941333 12.686222-59.932444 12.686222-127.914667 12.686222h-66.730666c-67.982222 0-101.973333 0-127.914667-12.686222a118.983111 118.983111 0 0 1-53.048889-50.830223c-4.352-8.192-7.623111-23.694222-9.841778-46.535111A85.333333 85.333333 0 0 1 372.764444 156.444444z"  horiz-adv-x="1024" />
      
      <glyph glyph-name="APP_pipei" unicode="&#59743;" d="M328.777143 821.174857a109.714286 109.714286 0 0 0 109.714286-109.714286V527.36a36.571429 36.571429 0 1 0-73.142858 0V711.460571a36.571429 36.571429 0 0 1-36.571428 36.571429H184.32a36.571429 36.571429 0 0 1-36.571429-36.571429v-655.798857a36.571429 36.571429 0 0 1 36.571429-36.571428h144.457143a36.571429 36.571429 0 0 1 36.571428 36.571428V236.617143a36.571429 36.571429 0 1 0 73.142858 0v-180.955429a109.714286 109.714286 0 0 0-109.714286-109.714285H184.32a109.714286 109.714286 0 0 0-109.714286 109.714285V711.460571a109.714286 109.714286 0 0 0 109.714286 109.714286h144.457143z m513.243428 0a109.714286 109.714286 0 0 0 109.714286-109.714286v-655.798857a109.714286 109.714286 0 0 0-109.714286-109.714285H696.32a109.714286 109.714286 0 0 0-109.714286 109.714285V236.617143a36.571429 36.571429 0 1 0 73.142857 0v-180.955429a36.571429 36.571429 0 0 1 36.571429-36.571428h145.700571a36.571429 36.571429 0 0 1 36.571429 36.571428V711.460571a36.571429 36.571429 0 0 1-36.571429 36.571429H696.32a36.571429 36.571429 0 0 1-36.571429-36.571429V527.36a36.571429 36.571429 0 1 0-73.142857 0V711.460571a109.714286 109.714286 0 0 0 109.714286 109.714286z m-72.850285-401.042286a36.571429 36.571429 0 0 0 0-73.142857H256.585143a36.571429 36.571429 0 1 0 0 73.142857h512.585143z"  horiz-adv-x="1024" />
      
      <glyph glyph-name="APP_yujing" unicode="&#59742;" d="M1015.63126-39.339819V477.392341c0 55.888303-11.433638 111.179327-33.703633 162.545371A425.604362 425.604362 0 0 1 754.961387 862.893646a427.652178 427.652178 0 0 1-556.579241-222.955934 408.709883 408.709883 0 0 1-33.703634-162.801348l0.853257-516.561509H83.875118a44.539991 44.539991 0 0 1-42.577501-45.051945c0.511954-23.891183 20.051529-43.089455 44.284014-43.430758h1019.641566a44.881294 44.881294 0 0 1 39.505777 22.440647 43.857386 43.857386 0 0 1-0.853256 45.051945 44.96662 44.96662 0 0 1-40.359035 20.990111l-87.800097 0.085326z m-448.727615 43.089455V315.870878H408.283255L626.290301 717.413406v-327.053232h153.159549l-212.460879-386.525212z"  horiz-adv-x="1194" />
      
      <glyph glyph-name="liebiao1" unicode="&#59741;" d="M877.714286 719.238095a30.47619 30.47619 0 0 0 5.485714-60.464762L877.714286 658.285714h-609.52381a30.47619 30.47619 0 0 0-5.485714 60.464762L268.190476 719.238095h609.52381zM877.714286 414.47619a30.47619 30.47619 0 0 0 5.485714-60.464761l-5.485714-0.487619h-609.52381a30.47619 30.47619 0 0 0-5.485714 60.464761l5.485714 0.487619h609.52381zM877.714286 109.714286a30.47619 30.47619 0 0 0 5.485714-60.464762l-5.485714-0.487619h-609.52381a30.47619 30.47619 0 0 0-5.485714 60.464762l5.485714 0.487619h609.52381zM146.285714 688.761905m-30.47619 0a30.47619 30.47619 0 1 1 60.952381 0 30.47619 30.47619 0 1 1-60.952381 0ZM146.285714 384m-30.47619 0a30.47619 30.47619 0 1 1 60.952381 0 30.47619 30.47619 0 1 1-60.952381 0ZM146.285714 79.238095m-30.47619 0a30.47619 30.47619 0 1 1 60.952381 0 30.47619 30.47619 0 1 1-60.952381 0Z"  horiz-adv-x="1024" />
      
      <glyph glyph-name="fenzu" unicode="&#59737;" d="M817.777778 753.777778a45.511111 45.511111 0 0 0 44.714666-40.789334l0.341334-5.745777v-162.929778a46.08 46.08 0 0 0-39.253334-46.136889L817.720889 497.777778H364.999111v-75.946667l303.445333-0.170667a28.444444 28.444444 0 0 0 27.989334-23.324444l0.455111-5.12-0.056889-103.992889h120.945778a45.511111 45.511111 0 0 0 44.714666-40.846222l0.341334-5.688889v-162.929778a46.08 46.08 0 0 0-39.253334-46.193778l-5.802666-0.398222H187.278222a45.511111 45.511111 0 0 0-44.714666 40.846222l-0.341334 5.688889v162.929778a46.08 46.08 0 0 0 39.253334 46.193778l5.802666 0.341333 452.664889 0.056889V364.771556l-303.388444 0.113777a28.444444 28.444444 0 0 0-27.932445 23.324445l-0.455111 5.12L308.110222 497.777778H187.278222a45.511111 45.511111 0 0 0-44.714666 40.789333L142.222222 544.312889V707.242667a46.08 46.08 0 0 0 39.253334 46.136889l5.802666 0.398222h630.499556z m-11.889778-521.443556H199.111111v-142.222222h606.776889v142.222222z m-203.832889-42.666666a28.444444 28.444444 0 0 0 5.12-56.490667l-5.12-0.455111h-199.111111a28.444444 28.444444 0 0 0-5.12 56.433778l5.12 0.455111h199.111111zM805.888 696.888889H199.111111V554.666667h606.776889V696.888889z m-203.832889-42.666667a28.444444 28.444444 0 0 0 5.12-56.433778l-5.12-0.455111h-199.111111a28.444444 28.444444 0 0 0-5.12 56.433778l5.12 0.455111h199.111111z"  horiz-adv-x="1024" />
      
      <glyph glyph-name="shaixuan5" unicode="&#59738;" d="M786.602667 753.777778H237.397333a85.333333 85.333333 0 0 1-64.853333-140.856889L397.084444 350.72a28.444444 28.444444 0 0 0 6.826667-18.488889v-223.004444a85.333333 85.333333 0 0 1 47.559111-76.458667l47.957334-23.665778a83.626667 83.626667 0 0 1 120.661333 74.979556V332.231111a28.444444 28.444444 0 0 0 6.826667 18.488889l224.540444 262.257778a85.333333 85.333333 0 0 1-64.853333 140.8z m-549.205334-56.888889h549.205334a28.444444 28.444444 0 0 0 21.617777-46.933333l-224.483555-262.257778a85.333333 85.333333 0 0 1-20.536889-55.466667v-248.149333a26.737778 26.737778 0 0 0-38.627556-24.007111l-47.900444 23.722666a28.444444 28.444444 0 0 0-15.872 25.486223V332.231111a85.333333 85.333333 0 0 1-20.48 55.466667L215.722667 649.955556a28.444444 28.444444 0 0 0 21.617777 46.933333z"  horiz-adv-x="1024" />
      
      <glyph glyph-name="gengduo2" unicode="&#59739;" d="M227.555556 384m-56.888889 0a56.888889 56.888889 0 1 1 113.777777 0 56.888889 56.888889 0 1 1-113.777777 0ZM512 383.032889m-56.888889 0a56.888889 56.888889 0 1 1 113.777778 0 56.888889 56.888889 0 1 1-113.777778 0ZM796.444444 383.032889m-56.888888 0a56.888889 56.888889 0 1 1 113.777777 0 56.888889 56.888889 0 1 1-113.777777 0Z"  horiz-adv-x="1024" />
      
      <glyph glyph-name="kapian2" unicode="&#59740;" d="M384 768H224A96 96 0 0 1 128 672V512a96 96 0 0 1 96-96H384A96 96 0 0 1 480 512V672A96 96 0 0 1 384 768zM224 704H384a32 32 0 0 0 32-32V512a32 32 0 0 0-32-32H224A32 32 0 0 0 192 512V672a32 32 0 0 0 32 32zM384 352H224A96 96 0 0 1 128 256v-160A96 96 0 0 1 224 0H384a96 96 0 0 1 96 96V256A96 96 0 0 1 384 352z m-160-64H384a32 32 0 0 0 32-32v-160a32 32 0 0 0-32-32H224a32 32 0 0 0-32 32V256a32 32 0 0 0 32 32zM800 768H640a96 96 0 0 1-96-96V512A96 96 0 0 1 640 416h160A96 96 0 0 1 896 512V672A96 96 0 0 1 800 768zM640 704h160a32 32 0 0 0 32-32V512a32 32 0 0 0-32-32H640a32 32 0 0 0-32 32V672A32 32 0 0 0 640 704zM800 352H640A96 96 0 0 1 544 256v-160A96 96 0 0 1 640 0h160a96 96 0 0 1 96 96V256a96 96 0 0 1-96 96z m-160-64h160a32 32 0 0 0 32-32v-160a32 32 0 0 0-32-32H640a32 32 0 0 0-32 32V256a32 32 0 0 0 32 32z"  horiz-adv-x="1024" />
      
      <glyph glyph-name="paixu3" unicode="&#59736;" d="M853.333333 679.822222a28.444444 28.444444 0 0 0 5.12-56.433778L853.333333 622.933333H484.352a28.444444 28.444444 0 0 0-5.12 56.433778l5.12 0.455111H853.333333zM150.528 248.661333a28.444444 28.444444 0 0 0 36.295111 3.299556l3.982222-3.299556 147.569778-147.569777a28.444444 28.444444 0 0 0-36.295111-43.52l-3.925333 3.242666-147.626667 147.626667a28.444444 28.444444 0 0 0 0 40.220444zM318.293333 736.711111a28.444444 28.444444 0 0 0 27.989334-23.324444l0.455111-5.12v-627.313778a28.444444 28.444444 0 0 0-56.433778-5.12l-0.455111 5.12V708.266667a28.444444 28.444444 0 0 0 28.444444 28.444444zM779.548444 395.377778a28.444444 28.444444 0 0 0 5.12-56.433778l-5.12-0.455111h-295.253333a28.444444 28.444444 0 0 0-5.12 56.433778l5.12 0.455111h295.253333zM682.666667 110.933333a28.444444 28.444444 0 0 0 5.12-56.433777L682.666667 54.044444H455.111111a28.444444 28.444444 0 0 0-5.12 56.433778L455.111111 110.933333h227.555556z"  horiz-adv-x="1024" />
      
      <glyph glyph-name="PPT" unicode="&#59733;" d="M554.642286 896a469.357714 469.357714 0 0 1-469.284572-469.357714l633.124572-163.84L554.642286 896zM554.642286 896A469.357714 469.357714 0 0 0 1024 426.642286l-234.642286-128-234.715428 128V896zM85.357714 426.642286a469.357714 469.357714 0 0 1 938.642286 0H85.357714zM640 136.777143V626.761143A50.322286 50.322286 0 0 1 590.116571 676.571429H162.157714a465.481143 465.481143 0 0 1 72.118857-597.357715h345.965715a64 64 0 0 1 59.757714 57.636572zM0 725.357714m49.883429 0l497.590857 0q49.883429 0 49.883428-49.883428l0-497.590857q0-49.883429-49.883428-49.883429l-497.590857 0q-49.883429 0-49.883429 49.883429l0 497.590857q0 49.883429 49.883429 49.883428ZM315.757714 597.357714c33.499429 2.267429 66.779429-7.314286 93.842286-27.355428 22.308571-20.114286 34.230857-49.298286 32.402286-79.36 0.585143-23.771429-4.681143-47.396571-15.36-68.681143a108.397714 108.397714 0 0 0-45.641143-42.642286 157.842286 157.842286 0 0 0-68.681143-14.555428h-65.682286V256h-66.56V597.357714h135.68z m-69.12-170.715428h57.124572c18.212571-1.243429 36.205714 4.022857 50.834285 14.921143a62.317714 62.317714 0 0 1 17.042286 46.957714c0 37.522286-21.796571 56.32-65.755428 56.32h-59.245715v-118.198857z"  horiz-adv-x="1097" />
      
      <glyph glyph-name="tupian1" unicode="&#59734;" d="M125.806266 895.999269a51.199927 51.199927 0 0 1-36.863947-15.359978A53.613638 53.613638 0 0 1 73.143484 844.799342v-921.598684c0-12.799982 5.266278-26.477676 15.798835-35.839949a52.662782 52.662782 0 0 1 36.863947-15.359978h772.387468a51.199927 51.199927 0 0 1 36.863947 15.359978 49.883357 49.883357 0 0 1 15.798835 35.839949V603.428258L658.285505 895.999269H125.806266zM762.660213 177.518009L655.944937 343.040059a16.822833 16.822833 0 0 1-14.482265 7.679989 19.017116 19.017116 0 0 1-14.482265-7.679989L569.782775 254.3179 441.782957 461.677603a16.822833 16.822833 0 0 1-14.482265 7.679989 19.017116 19.017116 0 0 1-14.555407-7.679989L236.98325 177.518009a15.506264 15.506264 0 0 1 0-17.115404 15.871977 15.871977 0 0 1 14.482265-8.484559h496.639291a19.017116 19.017116 0 0 1 15.359978 8.484559c2.559996 5.997706 2.559996 12.799982-0.804571 17.115404zM617.544992 490.642133a42.642225 42.642225 0 1 1 85.357592 0 42.642225 42.642225 0 0 1-85.357592 0zM950.856516 603.428258h-219.428258a73.142753 73.142753 0 0 0-73.142753 73.142753V895.999269l292.571011-292.571011z"  horiz-adv-x="1024" />
      
      <glyph glyph-name="yasuobaorar" unicode="&#59735;" d="M73.142857 384h877.714286v-285.403429c0-53.394286-5.558857-72.704-15.945143-92.16-10.24-19.309714-26.038857-35.108571-45.348571-45.348571-19.456-10.386286-38.765714-15.945143-92.16-15.945143H226.596571c-53.321143 0-72.704 5.558857-92.16 15.945143a108.763429 108.763429 0 0 0-45.275428 45.348571c-10.386286 19.456-15.945143 38.765714-15.945143 92.16V384zM226.596571 822.857143h570.806858c53.394286 0 72.704-5.558857 92.16-15.945143 19.602286-10.459429 34.889143-25.819429 45.348571-45.348571 10.386286-19.456 15.945143-38.765714 15.945143-92.16V384H73.142857V669.403429c0 53.394286 5.558857 72.704 15.945143 92.16 10.24 19.382857 26.038857 35.108571 45.348571 45.348571 19.456 10.386286 38.765714 15.945143 92.16 15.945143zM402.285714 822.857143h219.428572v-877.714286h-219.428572zM73.142857 537.6h877.714286v-307.2H73.142857zM643.657143 471.771429v-175.542858H380.342857V471.771429h263.314286z"  horiz-adv-x="1024" />
      
      <glyph glyph-name="huaban1" unicode="&#59732;" d="M645.895758 873.456485c-270.336 72.440242-548.181333-87.970909-620.606061-358.306909-72.455758-270.320485 87.970909-548.165818 358.291394-620.606061 270.320485-72.440242 548.181333 87.970909 620.606061 358.306909 72.440242 270.320485-87.970909 548.165818-358.30691 620.606061zM391.757576-74.860606c-253.021091 67.801212-403.704242 328.781576-335.903031 581.818182C123.655758 759.978667 384.651636 910.661818 637.672727 842.860606c253.021091-67.801212 403.704242-328.781576 335.903031-581.818182-67.801212-253.021091-328.781576-403.704242-581.818182-335.90303z m208.523636 710.640485l-5.880242 38.555151-27.011879-28.113454-38.539636 6.314666 18.432-34.428121-17.935516-34.645333 38.446546 6.857697 27.461818-27.741091 5.290667 38.663758 34.862545 17.516606-35.110788 17.004606h-0.015515zM428.280242 129.396364l4.763152-38.741334 27.834182 27.353212 38.322424-7.447272-17.392485 34.940121 18.897455 34.133333-38.601697-5.740606-26.608485 28.501334-6.469818-38.477576-35.374546-16.492606 34.629818-18.028606zM165.701818 671.495758a2.606545 2.606545 0 0 1 2.684121 0.868848 453.414788 453.414788 0 0 0 183.652849 131.878788 2.637576 2.637576 0 0 1-1.908364 4.918303 458.689939 458.689939 0 0 1-185.793939-133.430303 2.637576 2.637576 0 0 1 1.365333-4.220121z m465.656243 147.828363a448.605091 448.605091 0 0 1-252.322909-5.585454 2.637576 2.637576 0 0 0-1.582546 5.057939 454.206061 454.206061 0 0 0 255.286303 5.647515c171.008-45.831758 301.02497-188.260848 331.279515-362.899394a2.637576 2.637576 0 0 0-5.213091-0.915394C928.954182 633.235394 800.426667 774.019879 631.373576 819.308606z m229.639757-723.704242A454.407758 454.407758 0 0 0 691.044848-30.72a2.637576 2.637576 0 0 1 0.356849-4.964848 2.637576 2.637576 0 0 1 1.706667 0.139636 459.713939 459.713939 0 0 1 172.000969 127.782788 2.637576 2.637576 0 1 1-4.080485 3.366788z m-462.925576-146.928485a447.736242 447.736242 0 0 1 267.481213 10.658909 2.637576 2.637576 0 1 0 1.753212-4.964848 453.104485 453.104485 0 0 0-270.584243-10.798546C225.698909-10.581333 95.666424 131.847758 65.427394 306.486303a2.637576 2.637576 0 1 0 5.213091 0.884364c29.882182-172.606061 158.409697-313.406061 327.431757-358.694788zM828.664242 493.521455a5.244121 5.244121 0 0 1 6.749091-3.227152 5.275152 5.275152 0 0 1 3.211637 6.733576A343.04 343.04 0 0 1 603.539394 715.403636a343.04 343.04 0 0 1-312.769939-71.602424 5.275152 5.275152 0 1 1 6.873212-7.990303 332.536242 332.536242 0 0 0 303.16606 69.399273A332.551758 332.551758 0 0 0 828.664242 493.53697l-0.015515-0.031031zM194.110061 277.721212c2.746182 0.930909 5.740606-0.512 6.71806-3.258182A332.536242 332.536242 0 0 1 428.683636 62.836364a332.536242 332.536242 0 0 1 303.166061 69.352727 5.275152 5.275152 0 1 0 6.873212-7.974788 343.04 343.04 0 0 0-312.769939-71.586909 343.04 343.04 0 0 0-235.054546 218.344727 5.275152 5.275152 0 0 0 3.227152 6.702546v0.03103zM152.265697 642.327273a2.637576 2.637576 0 1 1-1.380849-5.12l805.546667-215.831273a2.637576 2.637576 0 0 1 1.380849 5.12L152.265697 642.327273zM67.909818 348.004848l805.577697-215.862303a2.637576 2.637576 0 0 0-1.380848-5.088969L66.56 342.884848a2.637576 2.637576 0 1 0 1.365333 5.12v-0.015515h-0.015515z"  horiz-adv-x="1024" />
      
      <glyph glyph-name="huaban" unicode="&#59731;" d="M645.895758 873.456485c-270.336 72.440242-548.181333-87.970909-620.606061-358.306909-72.455758-270.320485 87.970909-548.165818 358.291394-620.606061 270.320485-72.440242 548.181333 87.970909 620.606061 358.306909 72.440242 270.320485-87.970909 548.165818-358.30691 620.606061zM391.757576-74.860606c-253.021091 67.801212-403.704242 328.781576-335.903031 581.818182C123.655758 759.978667 384.651636 910.661818 637.672727 842.860606c253.021091-67.801212 403.704242-328.781576 335.903031-581.818182-67.801212-253.021091-328.781576-403.704242-581.818182-335.90303z m208.523636 710.640485l-5.880242 38.555151-27.011879-28.113454-38.539636 6.314666 18.432-34.428121-17.935516-34.645333 38.446546 6.857697 27.461818-27.741091 5.290667 38.663758 34.862545 17.516606-35.110788 17.004606h-0.015515zM428.280242 129.396364l4.763152-38.741334 27.834182 27.353212 38.322424-7.447272-17.392485 34.940121 18.897455 34.133333-38.601697-5.740606-26.608485 28.501334-6.469818-38.477576-35.374546-16.492606 34.629818-18.028606zM165.701818 671.495758a2.606545 2.606545 0 0 1 2.684121 0.868848 453.414788 453.414788 0 0 0 183.652849 131.878788 2.637576 2.637576 0 0 1-1.908364 4.918303 458.689939 458.689939 0 0 1-185.793939-133.430303 2.637576 2.637576 0 0 1 1.365333-4.220121z m465.656243 147.828363a448.605091 448.605091 0 0 1-252.322909-5.585454 2.637576 2.637576 0 0 0-1.582546 5.057939 454.206061 454.206061 0 0 0 255.286303 5.647515c171.008-45.831758 301.02497-188.260848 331.279515-362.899394a2.637576 2.637576 0 0 0-5.213091-0.915394C928.954182 633.235394 800.426667 774.019879 631.373576 819.308606z m229.639757-723.704242A454.407758 454.407758 0 0 0 691.044848-30.72a2.637576 2.637576 0 0 1 0.356849-4.964848 2.637576 2.637576 0 0 1 1.706667 0.139636 459.713939 459.713939 0 0 1 172.000969 127.782788 2.637576 2.637576 0 1 1-4.080485 3.366788z m-462.925576-146.928485a447.736242 447.736242 0 0 1 267.481213 10.658909 2.637576 2.637576 0 1 0 1.753212-4.964848 453.104485 453.104485 0 0 0-270.584243-10.798546C225.698909-10.581333 95.666424 131.847758 65.427394 306.486303a2.637576 2.637576 0 1 0 5.213091 0.884364c29.882182-172.606061 158.409697-313.406061 327.431757-358.694788zM828.664242 493.521455a5.244121 5.244121 0 0 1 6.749091-3.227152 5.275152 5.275152 0 0 1 3.211637 6.733576A343.04 343.04 0 0 1 603.539394 715.403636a343.04 343.04 0 0 1-312.769939-71.602424 5.275152 5.275152 0 1 1 6.873212-7.990303 332.536242 332.536242 0 0 0 303.16606 69.399273A332.551758 332.551758 0 0 0 828.664242 493.53697l-0.015515-0.031031zM194.110061 277.721212c2.746182 0.930909 5.740606-0.512 6.71806-3.258182A332.536242 332.536242 0 0 1 428.683636 62.836364a332.536242 332.536242 0 0 1 303.166061 69.352727 5.275152 5.275152 0 1 0 6.873212-7.974788 343.04 343.04 0 0 0-312.769939-71.586909 343.04 343.04 0 0 0-235.054546 218.344727 5.275152 5.275152 0 0 0 3.227152 6.702546v0.03103zM152.265697 642.327273a2.637576 2.637576 0 1 1-1.380849-5.12l805.546667-215.831273a2.637576 2.637576 0 0 1 1.380849 5.12L152.265697 642.327273zM67.909818 348.004848l805.577697-215.862303a2.637576 2.637576 0 0 0-1.380848-5.088969L66.56 342.884848a2.637576 2.637576 0 1 0 1.365333 5.12v-0.015515h-0.015515z"  horiz-adv-x="1024" />
      
      <glyph glyph-name="yanjing1" unicode="&#59729;" d="M942.208 409.792c-94.784 199.68-238.08 300.16-430.208 300.16-192.192 0-335.36-100.48-430.208-300.224a60.288 60.288 0 0 1 0-51.52c94.784-199.68 238.08-300.16 430.208-300.16 192.192 0 335.36 100.48 430.208 300.224a60.288 60.288 0 0 1 0 51.52zM512 129.984c-161.28 0-279.424 81.792-362.688 254.016C232.576 556.16 350.72 638.016 512 638.016S791.424 556.16 874.688 384c-83.2-172.16-201.28-254.016-362.688-254.016zM507.968 560a176 176 0 1 1 0-352 176 176 0 0 1 0 352z m0-288a112 112 0 1 0 0 224 112 112 0 1 0 0-224z"  horiz-adv-x="1024" />
      
      <glyph glyph-name="fuzhi2" unicode="&#59730;" d="M808.171121 896a212.765957 212.765957 0 0 0 212.765957-212.765957v-510.638298a42.553191 42.553191 0 0 0-85.106383 0v510.638298a127.659574 127.659574 0 0 1-127.659574 127.659574h-510.638298a42.553191 42.553191 0 1 0 0 85.106383h510.638298zM681.192397 723.06383a170.212766 170.212766 0 0 0 170.212766-170.212766v-510.638298a170.212766 170.212766 0 0 0-170.212766-170.212766H170.554099a170.212766 170.212766 0 0 0-170.212766 170.212766V552.851064a170.212766 170.212766 0 0 0 170.212766 170.212766h510.638298z m0-85.106383H170.554099a85.106383 85.106383 0 0 1-85.106383-85.106383v-510.638298a85.106383 85.106383 0 0 1 85.106383-85.106383h510.638298a85.106383 85.106383 0 0 1 85.106383 85.106383V552.851064a85.106383 85.106383 0 0 1-85.106383 85.106383z"  horiz-adv-x="1024" />
      
      <glyph glyph-name="xiazai2" unicode="&#59728;" d="M861.12 418.88c19.2 0 34.88-15.616 34.88-34.88v-349.12a34.88 34.88 0 0 0-34.88-34.88H162.88A34.88 34.88 0 0 0 128 34.88V383.872a34.944 34.944 0 1 0 69.76 0v-314.048h628.48V384c-0.064 16.832 11.968 31.36 28.544 34.368l6.336 0.512zM511.872 768c19.264 0 34.88-15.616 34.88-34.88V312.96l115.2 115.008a34.88 34.88 0 0 0 44.416 4.096l4.864-4.096a34.88 34.88 0 0 0 0-49.28L536.704 204.16a35.136 35.136 0 0 0-4.864-4.032l-2.24-1.216-3.072-1.792-2.176-0.704-1.152-0.448-2.304-0.896-1.408-0.128-1.408-0.448-1.6-0.128-1.472-0.256h-1.6l-1.536-0.128-1.664 0.128h-1.216l-1.152 0.192-2.24 0.192-1.92 0.576-1.472 0.32-2.56 0.704-1.152 0.64-1.024 0.384-1.536 0.832-1.728 0.768-1.536 1.088-1.088 0.768-2.176 1.536a35.136 35.136 0 0 0-4.224 4.224L312.768 378.752a34.88 34.88 0 1 0 49.408 49.28L476.8 313.344V733.12c0 16.832 12.032 31.296 28.672 34.304L511.808 768z"  horiz-adv-x="1024" />
      
      <glyph glyph-name="APP_gongyixianlu" unicode="&#59727;" d="M640 895.402667a85.333333 85.333333 0 0 0 85.333333-85.333334v-256a85.333333 85.333333 0 0 0-85.333333-85.333333h-85.333333V426.666667h256a42.666667 42.666667 0 0 0 42.666666-42.666667v-85.333333h85.333334a85.333333 85.333333 0 0 0 85.333333-85.333334v-256a85.333333 85.333333 0 0 0-85.333333-85.333333H682.666667a85.333333 85.333333 0 0 0-85.333334 85.333333V213.333333a85.333333 85.333333 0 0 0 85.333334 85.333334h85.333333v42.666666H256V298.666667h85.333333a85.333333 85.333333 0 0 0 85.333334-85.333334v-256a85.333333 85.333333 0 0 0-85.333334-85.333333H85.333333a85.333333 85.333333 0 0 0-85.333333 85.333333V213.333333a85.333333 85.333333 0 0 0 85.333333 85.333334h85.333334V384a42.666667 42.666667 0 0 0 42.666666 42.666667h256v42.069333h-85.333333a85.333333 85.333333 0 0 0-85.333333 85.333333v256a85.333333 85.333333 0 0 0 85.333333 85.333334h256zM341.333333 213.333333H85.333333v-256h256V213.333333z m597.333334 0H682.666667v-256h256V213.333333zM640 810.069333h-256v-256h256v256z"  horiz-adv-x="1024" />
      
      <glyph glyph-name="shaixuan4" unicode="&#59726;" d="M841.142857 758.857143h-658.285714l-8.630857-0.512c-29.476571-4.754286-51.126857-22.820571-60.123429-47.616l-2.706286-9.435429a73.142857 73.142857 0 0 1 15.945143-63.195428L373.028571 351.378286l0.073143-204.068572a73.142857 73.142857 0 0 1 40.813715-65.536l131.657142-64.950857 7.753143-3.364571c25.746286-7.899429 49.737143-3.657143 68.315429 10.166857l6.582857 5.558857a73.142857 73.142857 0 0 1 22.820571 53.248V351.378286l245.76 286.793143a73.142857 73.142857 0 0 1-55.588571 120.685714z m-658.285714-73.069714h658.212571L577.828571 378.221714v-296.009143l-131.657142 65.097143V378.368L182.857143 685.787429z"  horiz-adv-x="1024" />
      
      <glyph glyph-name="shouqi5" unicode="&#59724;" d="M450.267429-41.179429a36.571429 36.571429 0 0 0-51.785143 51.638858l375.149714 375.661714-375.222857 377.417143a36.571429 36.571429 0 0 0-4.022857 46.738285l4.242285 5.046858a36.571429 36.571429 0 0 0 51.712-0.219429l400.822858-403.236571a36.571429 36.571429 0 0 0-0.073143-51.565715l-400.822857-401.554285zM201.874286 828.928c21.942857 0 39.643429-17.773714 39.643428-39.643429v-804.571428a39.643429 39.643429 0 0 0-79.286857 0v804.571428c0 21.869714 17.773714 39.643429 39.643429 39.643429z"  horiz-adv-x="1024" />
      
      <glyph glyph-name="zhankai5" unicode="&#59725;" d="M943.177143 445.732571a36.571429 36.571429 0 0 1-51.638857 51.785143l-375.661715-375.149714-377.490285 375.222857a36.571429 36.571429 0 0 1-46.665143 4.022857l-5.12-4.242285a36.571429 36.571429 0 0 1 0.292571-51.712l403.236572-400.822858a36.571429 36.571429 0 0 1 51.565714 0.073143l401.481143 400.822857zM953.929143 694.125714c0-21.942857-17.773714-39.643429-39.643429-39.643428h-804.571428a39.643429 39.643429 0 1 0 0 79.286857h804.571428c21.942857 0 39.643429-17.773714 39.643429-39.643429z"  horiz-adv-x="1024" />
      
      <glyph glyph-name="zhongfayoujianicon" unicode="&#59722;" d="M867.2 891.52c86.144 0 155.968-74.496 155.968-166.4L1024 352.192c0-26.688-20.288-48.32-45.312-48.32-24.96 0-45.248 21.632-45.248 48.32L932.48 725.12c0 38.528-29.248 69.76-65.28 69.76L158.912 799.36c-36.096 0-65.344-31.296-65.344-69.76l-3.008-691.2c0-38.464 29.248-69.76 65.344-69.76h244.992c24.96 0 45.248-21.568 45.248-48.32 0-26.688-20.224-48.32-45.248-48.32H155.904C69.824-128 0-53.504 0 38.4L2.944 729.6C2.944 821.504 72.768 896 158.912 896L867.2 891.52zM736 334.336c-123.52 0-224-103.232-224-231.168S612.48-128 736-128s224 103.232 224 231.168c0 24-18.496 43.52-41.28 43.52-22.784 0-41.28-19.52-41.28-43.52 0-79.36-63.104-144.192-141.44-144.192s-141.44 64.832-141.44 144.192c0 79.36 63.104 144.192 141.44 144.192 22.784 0 41.28 19.456 41.28 43.52 0 24-18.496 43.456-41.28 43.456zM843.84 351.552L716.8 423.104c-19.84 11.136-45.568 3.2-57.344-17.664-11.776-20.928-5.248-46.976 14.592-58.112l90.432-50.88-55.424-93.696a42.944 42.944 0 0 1 7.936-54.528l5.44-3.904c19.584-11.648 45.44-4.288 57.6 16.384l78.08 131.904c12.352 21.056 6.016 47.616-14.208 58.944zM906.688 816.448a43.2 43.2 0 0 0 62.72-8.64 48.96 48.96 0 0 0-8.192-66.176L531.904 414.336a42.88 42.88 0 0 0-54.592 0L47.936 741.632a48.96 48.96 0 0 0-8.192 66.176 43.2 43.2 0 0 0 62.72 8.64L504.64 511.36l402.112 305.088z"  horiz-adv-x="1024" />
      
      <glyph glyph-name="hetong" unicode="&#59723;" d="M694.857143 457.142857a292.571429 292.571429 0 1 0 0-585.142857 292.571429 292.571429 0 0 0 0 585.142857z m73.142857 402.285714A109.714286 109.714286 0 0 0 877.714286 749.714286v-240.347429a36.571429 36.571429 0 1 0-73.142857 0V749.714286a36.571429 36.571429 0 0 1-36.571429 36.571428H182.857143a36.571429 36.571429 0 0 1-36.571429-36.571428v-731.428572a36.571429 36.571429 0 0 1 36.571429-36.571428h218.112a36.571429 36.571429 0 1 0 0-73.142857H182.857143A109.714286 109.714286 0 0 0 73.142857 18.285714V749.714286A109.714286 109.714286 0 0 0 182.857143 859.428571h585.142857zM694.857143 384a219.428571 219.428571 0 1 1 0-438.857143 219.428571 219.428571 0 0 1 0 438.857143z m4.900571-80.018286c2.413714-1.097143 4.388571-3.072 5.558857-5.485714l34.742858-74.093714 78.848-11.995429a11.556571 11.556571 0 0 0 6.582857-19.529143l-57.490286-58.88 13.458286-82.358857a11.556571 11.556571 0 0 0-17.042286-11.922286L694.857143 78.116571l-69.558857-38.4a11.556571 11.556571 0 0 0-17.042286 11.922286L621.714286 133.997714l-57.417143 58.88a11.556571 11.556571 0 0 0 6.509714 19.529143l78.848 11.995429 34.742857 74.093714a11.556571 11.556571 0 0 0 15.36 5.485714zM438.857143 530.285714a36.571429 36.571429 0 0 0 0-73.142857h-146.285714a36.571429 36.571429 0 0 0 0 73.142857h146.285714z m219.428571 146.285715a36.571429 36.571429 0 0 0 0-73.142858h-365.714285a36.571429 36.571429 0 0 0 0 73.142858h365.714285zM658.285714 676.571429a36.571429 36.571429 0 0 0 0-73.142858h-365.714285a36.571429 36.571429 0 0 0 0 73.142858h365.714285zM438.857143 530.285714a36.571429 36.571429 0 0 0 0-73.142857h-146.285714a36.571429 36.571429 0 0 0 0 73.142857h146.285714z"  horiz-adv-x="1024" />
      
      <glyph glyph-name="zhuanhuan1" unicode="&#59718;" d="M512 822.857143a438.857143 438.857143 0 1 0 0-877.714286A438.857143 438.857143 0 0 0 512 822.857143z m0-73.142857a365.714286 365.714286 0 1 1 0-731.428572A365.714286 365.714286 0 0 1 512 749.714286z m225.865143-402.285715a36.571429 36.571429 0 0 0 0-73.142857H385.755429l58.733714-61.586285a36.571429 36.571429 0 0 0 3.145143-46.738286l-4.388572-4.900572a36.571429 36.571429 0 0 0-51.638857 1.170286L273.773714 285.622857a36.571429 36.571429 0 0 0 26.477715 61.805714h437.613714z m-91.428572 258.340572l117.833143-123.392a36.571429 36.571429 0 0 0-26.404571-61.805714H300.251429a36.571429 36.571429 0 0 0 0 73.142857h352.109714l-58.806857 61.586285a36.571429 36.571429 0 0 0-3.145143 46.738286l4.388571 4.900572a36.571429 36.571429 0 0 0 51.712-1.170286z"  horiz-adv-x="1024" />
      
      <glyph glyph-name="qidongbeifen" unicode="&#59719;" d="M512 822.857143a438.857143 438.857143 0 1 0 0-877.714286A438.857143 438.857143 0 0 0 512 822.857143z m0-73.142857a365.714286 365.714286 0 1 1 0-731.428572A365.714286 365.714286 0 0 1 512 749.714286z m-61.586286-147.236572l241.225143-193.024a32.621714 32.621714 0 0 0 0-50.907428L450.413714 165.522286a32.621714 32.621714 0 0 0-52.955428 25.526857V576.950857c0 27.355429 31.597714 42.569143 52.955428 25.526857z m20.187429-109.933714v-217.161143L606.354286 384 470.601143 492.544z"  horiz-adv-x="1024" />
      
      <glyph glyph-name="lingcunweimoban" unicode="&#59720;" d="M741.814857 859.428571a36.571429 36.571429 0 0 0 26.038857-10.971428l172.544-175.689143a36.571429 36.571429 0 0 0 10.459429-25.6V18.285714c0-59.977143-45.641143-109.714286-103.643429-109.714285H176.786286C118.784-91.428571 73.142857-41.691429 73.142857 18.285714V749.714286C73.142857 809.691429 118.784 859.428571 176.786286 859.428571z m-489.910857-73.142857H176.786286C160.694857 786.285714 146.285714 770.56 146.285714 749.714286v-731.428572c0-20.845714 14.409143-36.571429 30.500572-36.571428h670.427428c16.091429 0 30.500571 15.725714 30.500572 36.571428V632.246857L726.381714 786.285714H617.618286l-0.219429-199.68c0-32.182857-27.062857-52.955429-58.002286-55.954285L551.570286 530.285714H317.732571c-34.011429 0-65.828571 21.430857-65.828571 56.32V786.285714z m256.219429-593.92a36.571429 36.571429 0 1 0 0-73.142857H304.64a36.571429 36.571429 0 0 0 0 73.142857h203.483429z m203.483428 185.344a36.571429 36.571429 0 0 0 0-73.142857H304.64a36.571429 36.571429 0 1 0 0 73.142857H711.68zM544.402286 786.285714H325.046857V603.428571H544.182857l0.219429 182.857143z"  horiz-adv-x="1024" />
      
      <glyph glyph-name="gengduo11" unicode="&#59721;" d="M219.428571 310.857143a73.142857 73.142857 0 1 1 0 146.285714 73.142857 73.142857 0 0 1 0-146.285714z m292.571429 0a73.142857 73.142857 0 1 1 0 146.285714 73.142857 73.142857 0 0 1 0-146.285714z m292.571429 0a73.142857 73.142857 0 1 1 0 146.285714 73.142857 73.142857 0 0 1 0-146.285714z"  horiz-adv-x="1024" />
      
      </font>
</defs>
</svg>
