<?xml version="1.0" encoding="UTF-8"?>
<svg width="16px" height="16px" viewBox="0 0 16 16" version="1.1" xmlns="http://www.w3.org/2000/svg" xmlns:xlink="http://www.w3.org/1999/xlink">
    <title>可视化面板/未选中/已完成</title>
    <g id="迭代15" stroke="none" stroke-width="1" fill="none" fill-rule="evenodd">
        <g id="签核-会签/或签视觉调整" transform="translate(-119.000000, -147.000000)" fill-rule="nonzero">
            <g id="编组-22" transform="translate(119.000000, 147.000000)">
                <path d="M8,1.77777778 C11.4364384,1.77777778 14.2222222,4.56356156 14.2222222,8 C14.2222222,11.4364384 11.4364384,14.2222222 8,14.2222222 C4.56356156,14.2222222 1.77777778,11.4364384 1.77777778,8 C1.77777778,4.56356156 4.56356156,1.77777778 8,1.77777778 Z" id="路径" fill="#FFFFFF"></path>
                <path d="M8,0 C3.581722,0 0,3.581722 0,8 C0,12.418278 3.581722,16 8,16 C12.418278,16 16,12.418278 16,8 C16,3.581722 12.418278,0 8,0 Z M8,1.77777778 C11.4364384,1.77777778 14.2222222,4.56356156 14.2222222,8 C14.2222222,11.4364384 11.4364384,14.2222222 8,14.2222222 C4.56356156,14.2222222 1.77777778,11.4364384 1.77777778,8 C1.77777778,4.56356156 4.56356156,1.77777778 8,1.77777778 Z" id="路径" fill="#A1A6CC"></path>
                <path d="M7.79784126,10.8617143 C7.66718961,10.9826108 7.49533228,11.049101 7.31733333,11.0476668 C7.1397406,11.0485367 6.96840085,10.9821062 6.83784126,10.8617143 L4.13561904,8.32507936 C4.00973026,8.21043516 3.93753332,8.0483604 3.93650793,7.87809524 C3.93650793,7.52660317 4.24126983,7.2431746 4.61409524,7.2431746 C4.79205677,7.24189739 4.96384136,7.3083595 5.09460318,7.42907936 L7.31733333,9.51568254 L10.9053968,6.15314286 C11.0363144,6.03279249 11.2080812,5.96670038 11.3859048,5.96825397 C11.759746,5.96825397 12.0634921,6.25269842 12.0634921,6.60215874 C12.0623578,6.77218922 11.9906025,6.93409858 11.8653968,7.04914286 L7.79784126,10.8617143 Z" id="路径" fill="#A1A6CC"></path>
            </g>
        </g>
    </g>
</svg>