<?xml version="1.0" standalone="no"?><!DOCTYPE svg PUBLIC "-//W3C//DTD SVG 1.1//EN" "http://www.w3.org/Graphics/SVG/1.1/DTD/svg11.dtd"><svg t="1625725777123" class="icon" viewBox="0 0 1024 1024" version="1.1" xmlns="http://www.w3.org/2000/svg" p-id="13951" xmlns:xlink="http://www.w3.org/1999/xlink" width="200" height="200"><defs><style type="text/css"></style></defs><path d="M512 512m-512 0a512 512 0 1 0 1024 0 512 512 0 1 0-1024 0Z" fill="#D4D5F1" p-id="13952"></path><path d="M787.219692 792.891077a9.728 9.728 0 0 1-9.728 9.728H246.035692a9.728 9.728 0 0 1-9.452307-12.012308 275.574154 275.574154 0 0 1 184.398769-248.044307l85.504 85.464615a7.483077 7.483077 0 0 0 10.633846 0l85.464615-85.464615a275.692308 275.692308 0 0 1 184.438154 248.044307 11.382154 11.382154 0 0 1 0.196923 2.284308z m-275.456-265.728a165.100308 165.100308 0 1 1 0-330.200615 165.100308 165.100308 0 0 1 0 330.200615z" fill="#ACB1DE" p-id="13953"></path></svg>
