<?xml version="1.0" encoding="UTF-8"?>
<svg width="14px" height="14px" viewBox="0 0 14 14" version="1.1" xmlns="http://www.w3.org/2000/svg" xmlns:xlink="http://www.w3.org/1999/xlink">
    <title>未点击通知执行人</title>
    <g id="迭代15" stroke="none" stroke-width="1" fill="none" fill-rule="evenodd">
        <g id="签核-会签/或签视觉调整" transform="translate(-418.000000, -287.000000)">
            <g id="1" transform="translate(326.000000, 277.000000)">
                <g id="未点击通知执行人" transform="translate(92.000000, 10.000000)">
                    <path d="M11.7640625,2 L2.321875,2 C1.565625,2 1,2.6078125 1,3.403125 L1,10.0453125 C1,10.8421875 1.2578125,11.265625 2.0515625,11.265625 L5.2046875,11.265625 L6.740625,12.965625 C6.8171875,13.0796875 6.928125,13.1171875 7.0421875,13.1171875 C7.15625,13.1171875 7.30625,13.0796875 7.4203125,12.965625 L8.8828125,11.265625 L11.7734375,11.265625 C12.565625,11.265625 13.0875,10.8421875 13.0875,10.0453125 L13.0875,3.403125 C13.0859375,2.6078125 12.5203125,2 11.7640625,2 Z M12.2984375,9.9421875 C12.2984375,10.2078125 12.0375,10.471875 11.7734375,10.471875 L8.61875,10.471875 C8.628125,10.471875 7.0421875,12.20625 7.0421875,12.20625 C7.0421875,12.20625 5.4890625,10.471875 5.465625,10.471875 L2.3125,10.471875 C2.0484375,10.471875 1.7875,10.2078125 1.7875,9.9421875 L1.7875,3.3234375 C1.7875,2.94375 2.2,2.79375 2.3125,2.79375 L11.7734375,2.79375 C11.8859375,2.79375 12.2984375,2.94375 12.2984375,3.3234375 L12.2984375,9.9421875 Z M10.0625,4.9125 L4.0234375,4.9125 C3.8046875,4.9125 3.6265625,5.090625 3.6265625,5.309375 C3.6265625,5.528125 3.8046875,5.70625 4.0234375,5.70625 L10.0625,5.70625 C10.2046875,5.70625 10.3359375,5.6296875 10.40625,5.5078125 C10.4765625,5.3859375 10.4765625,5.2328125 10.40625,5.1109375 C10.334375,4.9875 10.203125,4.9125 10.0625,4.9125 Z M7.4328125,7.559375 L4.0234375,7.559375 C3.8109375,7.5703125 3.64375,7.74375 3.64375,7.95625 C3.64375,8.16875 3.8109375,8.3421875 4.0234375,8.353125 L7.434375,8.353125 C7.58125,8.359375 7.7171875,8.2859375 7.79375,8.159375 C7.86875,8.034375 7.86875,7.878125 7.79375,7.7515625 C7.7171875,7.6265625 7.5796875,7.5546875 7.4328125,7.559375 L7.4328125,7.559375 Z" id="形状" fill="#2012D9" fill-rule="nonzero"></path>
                    <rect id="矩形" x="0" y="0" width="14" height="14"></rect>
                </g>
            </g>
        </g>
    </g>
</svg>