<?xml version="1.0" encoding="UTF-8"?>
<svg width="18px" height="18px" viewBox="0 0 18 18" version="1.1" xmlns="http://www.w3.org/2000/svg" xmlns:xlink="http://www.w3.org/1999/xlink">
    <title>编组 27</title>
    <defs>
        <circle id="path-1" cx="9" cy="9" r="9"></circle>
    </defs>
    <g id="迭代15" stroke="none" stroke-width="1" fill="none" fill-rule="evenodd">
        <g id="签核-会签/或签视觉调整" transform="translate(-118.000000, -243.000000)">
            <g id="编组-27" transform="translate(118.000000, 243.000000)">
                <g id="椭圆形">
                    <mask id="mask-2" fill="white">
                        <use xlink:href="#path-1"></use>
                    </mask>
                    <circle stroke="#2012D9" stroke-width="1.5" cx="9" cy="9" r="8.25"></circle>
                </g>
                <path d="M5.02777778,8.5 C5.3192614,8.5 5.55555556,8.73629416 5.55555556,9.02777778 L5.55555556,11.4722222 C5.55555556,11.7637058 5.3192614,12 5.02777778,12 C4.73629416,12 4.5,11.7637058 4.5,11.4722222 L4.5,9.02777778 C4.5,8.73629416 4.73629416,8.5 5.02777778,8.5 Z M7.13888889,6 C7.43037251,6 7.66666667,6.23629416 7.66666667,6.52777778 L7.66666667,11.4722222 C7.66666667,11.7637058 7.43037251,12 7.13888889,12 C6.84740527,12 6.61111111,11.7637058 6.61111111,11.4722222 L6.61111111,6.52777778 C6.61111111,6.23629416 6.84740527,6 7.13888889,6 Z M9.25,7 C9.54148362,7 9.77777778,7.23629416 9.77777778,7.52777778 L9.77777778,11.4722222 C9.77777778,11.7637058 9.54148362,12 9.25,12 C8.95851638,12 8.72222222,11.7637058 8.72222222,11.4722222 L8.72222222,7.52777778 C8.72222222,7.23629416 8.95851638,7 9.25,7 Z M11.3611111,9 C11.6525947,9 11.8888889,9.23629416 11.8888889,9.52777778 L11.8888889,11.4722222 C11.8888889,11.7637058 11.6525947,12 11.3611111,12 C11.0696275,12 10.8333333,11.7637058 10.8333333,11.4722222 L10.8333333,9.52777778 C10.8333333,9.23629416 11.0696275,9 11.3611111,9 Z M13.4722222,6.5 C13.7637058,6.5 14,6.73629416 14,7.02777778 L14,11.4722222 C14,11.7637058 13.7637058,12 13.4722222,12 C13.1807386,12 12.9444444,11.7637058 12.9444444,11.4722222 L12.9444444,7.02777778 C12.9444444,6.73629416 13.1807386,6.5 13.4722222,6.5 Z" id="形状结合" fill="#2012D9"></path>
            </g>
        </g>
    </g>
</svg>