<?xml version="1.0" encoding="UTF-8"?>
<svg width="14px" height="14px" viewBox="0 0 14 14" version="1.1" xmlns="http://www.w3.org/2000/svg" xmlns:xlink="http://www.w3.org/1999/xlink">
    <g id="I05" stroke="none" stroke-width="1" fill="none" fill-rule="evenodd">
        <g id="03-状态切图" transform="translate(-154.000000, -769.000000)" fill="#6167CC" fill-rule="nonzero">
            <path d="M161.00005,768.999956 C161.552335,768.999956 162.00005,769.447671 162.00005,769.999956 L161.999056,774.998956 L167.000044,774.99995 C167.552329,774.99995 168.000044,775.447665 168.000044,775.99995 C168.000044,776.552235 167.552329,776.99995 167.000044,776.99995 L161.999056,776.998956 L162.00005,781.999944 C162.00005,782.552229 161.552335,782.999944 161.00005,782.999944 C160.447765,782.999944 160.00005,782.552229 160.00005,781.999944 L159.999056,776.998956 L155.000056,776.99995 C154.447771,776.99995 154.000056,776.552235 154.000056,775.99995 C154.000056,775.447665 154.447771,774.99995 155.000056,774.99995 L159.999056,774.998956 L160.00005,769.999956 C160.00005,769.447671 160.447765,768.999956 161.00005,768.999956 Z" id="形状结合"></path>
        </g>
    </g>
</svg>