<?xml version="1.0" encoding="UTF-8"?>
<svg width="16px" height="16px" viewBox="0 0 16 16" version="1.1" xmlns="http://www.w3.org/2000/svg" xmlns:xlink="http://www.w3.org/1999/xlink">
    <defs>
        <linearGradient x1="0%" y1="0%" x2="100%" y2="100%" id="linearGradient-1">
            <stop stop-color="#7EAAFD" offset="0%"></stop>
            <stop stop-color="#3976FE" offset="100%"></stop>
        </linearGradient>
        <linearGradient x1="50%" y1="0%" x2="50%" y2="100%" id="linearGradient-2">
            <stop stop-color="#FFFFFF" offset="0%"></stop>
            <stop stop-color="#D7E4FF" offset="100%"></stop>
        </linearGradient>
    </defs>
    <g id="I05" stroke="none" stroke-width="1" fill="none" fill-rule="evenodd">
        <g id="03-状态切图" transform="translate(-85.000000, -181.000000)">
            <g id="卡片/标签/里程碑备份-7" transform="translate(85.000000, 181.000000)">
                <circle id="椭圆形" fill="url(#linearGradient-1)" cx="8" cy="8" r="8"></circle>
                <path d="M6.30544624,7.76591469 C6.26888409,7.81091029 6.11806526,7.98189354 6.08607338,8.02238957 C5.93525454,8.22486974 5.89412213,8.54883801 5.95353561,8.74231906 C6.03580043,9.01679217 6.31915704,9.04828909 6.5248191,9.07078689 C7.00926749,9.12028204 7.49828615,9.08428557 7.98730481,9.08428557 C8.46261267,9.08428557 8.93792053,9.07528644 9.41322839,9.08878513 C9.69658499,9.09328469 9.92966866,9.01679217 10.0484956,8.75581774 C10.1718929,8.47684506 10.1079091,8.21587062 9.89767677,7.99089266 C9.82455249,7.91440015 9.74685794,7.83340808 9.66916339,7.76141513 C9.49092294,7.58593232 9.49549321,7.4104495 9.65088231,7.22146802 C9.79713088,7.04598521 9.94794973,6.87050239 10.071347,6.67702134 C10.7386061,5.64662225 10.5055224,4.30125402 9.53662562,3.53632894 C8.56315856,2.76240474 7.14637552,2.83439769 6.26888409,3.69831307 C5.31369811,4.63422141 5.46908721,6.18206981 6.31915704,7.22596757 C6.51567856,7.46894377 6.4242732,7.62192879 6.30544624,7.76591469 L6.30544624,7.76591469 Z M11.5292624,12 L11.5384029,12 L11.5384029,11.2845701 L4.44534721,11.2845701 L4.44534721,12 L11.5292624,12 Z M11.9954297,10.2586705 C11.9954297,9.7547199 11.7760569,9.51624326 11.2733274,9.51624326 C9.08873937,9.5117437 6.90415133,9.5117437 4.71956328,9.52074282 C4.21683382,9.52074282 4.0066015,9.74122123 4.00203123,10.2271736 C3.99746096,10.4521516 4.00203123,10.6816291 4.00203123,10.9336044 L12,10.9336044 C11.9954297,10.6906282 11.9954297,10.4746494 11.9954297,10.2586705 Z" id="形状" fill="url(#linearGradient-2)" fill-rule="nonzero"></path>
                <path d="M15.9381045,9.00001402 C15.4460002,12.9463188 12.0796128,16 8,16 C3.92038718,16 0.553999814,12.9463188 0.0618955029,9.00001402 Z" id="形状结合" fill="#000000" opacity="0.5"></path>
                <path d="M5,13 C5.55228475,13 6,12.5522847 6,12 C6,11.4477153 5.55228475,11 5,11 C4.44771525,11 4,11.4477153 4,12 C4,12.5522847 4.44771525,13 5,13 Z M8,13 C8.55228475,13 9,12.5522847 9,12 C9,11.4477153 8.55228475,11 8,11 C7.44771525,11 7,11.4477153 7,12 C7,12.5522847 7.44771525,13 8,13 Z M11,13 C11.5522847,13 12,12.5522847 12,12 C12,11.4477153 11.5522847,11 11,11 C10.4477153,11 10,11.4477153 10,12 C10,12.5522847 10.4477153,13 11,13 Z" id="形状结合" fill="#FFFFFF"></path>
            </g>
        </g>
    </g>
</svg>