<?xml version="1.0" encoding="UTF-8"?>
<svg width="16px" height="16px" viewBox="0 0 16 16" version="1.1" xmlns="http://www.w3.org/2000/svg" xmlns:xlink="http://www.w3.org/1999/xlink">
    <g id="I05" stroke="none" stroke-width="1" fill="none" fill-rule="evenodd">
        <g id="03-状态切图" transform="translate(-262.000000, -126.000000)" fill="#C5CBD7">
            <g id="卡片/标签/里程碑备份-10" transform="translate(262.000000, 126.000000)">
                <path d="M8,0 C12.418278,0 16,3.581722 16,8 C16,12.418278 12.418278,16 8,16 C3.581722,16 0,12.418278 0,8 C0,3.581722 3.581722,0 8,0 Z M9.4790304,4 L6.4790304,4 C6.20288802,4 5.9790304,4.22385763 5.9790304,4.5 L5.9790304,8 L4.48616842,8 C4.38273793,8 4.28332821,8.04006429 4.20880254,8.11178451 C4.04962552,8.26496946 4.04476798,8.51818887 4.19795293,8.67736589 L7.71329667,12.3302179 L7.72263495,12.3396054 C7.88100447,12.4936251 8.13424591,12.4900988 8.28826555,12.3317293 L11.8407858,8.67887722 C11.913404,8.60420809 11.9540324,8.50415799 11.9540324,8.40000001 C11.9540324,8.1790861 11.7749463,8 11.5540324,8 L9.9790304,8 L9.9790304,4.5 C9.9790304,4.22385763 9.75517277,4 9.4790304,4 Z" id="下发"></path>
            </g>
        </g>
    </g>
</svg>