<?xml version="1.0" encoding="UTF-8"?>
<svg width="16px" height="16px" viewBox="0 0 16 16" version="1.1" xmlns="http://www.w3.org/2000/svg" xmlns:xlink="http://www.w3.org/1999/xlink">
    <defs>
        <linearGradient x1="20.2663735%" y1="12.5632347%" x2="100%" y2="100%" id="linearGradient-1">
            <stop stop-color="#FFB900" offset="0%"></stop>
            <stop stop-color="#FF9000" offset="100%"></stop>
        </linearGradient>
        <linearGradient x1="50%" y1="5.63198459%" x2="50%" y2="95.1449509%" id="linearGradient-2">
            <stop stop-color="#FFFFFF" offset="0%"></stop>
            <stop stop-color="#FFEDCC" offset="100%"></stop>
        </linearGradient>
    </defs>
    <g id="I05" stroke="none" stroke-width="1" fill="none" fill-rule="evenodd">
        <g id="03-状态切图" transform="translate(-338.000000, -67.000000)">
            <g id="卡片/标签/里程碑备份-3" transform="translate(338.000000, 67.000000)">
                <circle id="椭圆形" fill="url(#linearGradient-1)" cx="8" cy="8" r="8"></circle>
                <path d="M4.50094678,7.3 C4.88754611,7.3 5.20094678,7.61340068 5.20094678,8 C5.20094678,9.5463973 6.45454948,10.8 8.00094678,10.8 L8.00094678,10.0426748 C8.00094678,9.9632082 8.02461662,9.88554253 8.06893738,9.81958341 C8.19214733,9.63621967 8.44067441,9.5874554 8.62403815,9.71066535 L10.796022,11.1701144 C10.8383771,11.1985747 10.8748954,11.2348763 10.9036071,11.2770614 C11.0279057,11.4596889 10.9806207,11.7085017 10.7979932,11.8328003 L8.62600927,13.3110795 C8.55964455,13.3562482 8.48122432,13.3804031 8.40094679,13.3804031 C8.18003289,13.3804031 8.00094678,13.201317 8.00094678,12.9804031 L8.00094678,12.2 C5.68135083,12.2 3.80094678,10.3195959 3.80094678,8 C3.80094678,7.61340068 4.11434746,7.3 4.50094678,7.3 Z M7.92733714,2.82509519 C7.97038282,2.89028901 7.99339553,2.96666097 7.99353454,3.0447836 L7.99478389,3.80002657 C10.3205427,3.8 12.2009468,5.68040405 12.2009468,8 C12.2009468,8.38659932 11.8875461,8.7 11.5009468,8.7 C11.1143475,8.7 10.8009468,8.38659932 10.8009468,8 C10.8009468,6.4536027 9.54734408,5.2 8.00094678,5.2 L7.99868224,5.9375841 C7.99907535,6.15849765 7.82030821,6.33790215 7.59939466,6.33829526 C7.52147469,6.33843392 7.44521076,6.31581126 7.3799702,6.27320599 L5.17472186,4.83307108 C4.98975612,4.71227941 4.93773276,4.46441406 5.05852442,4.27944832 C5.08842583,4.23366092 5.12739842,4.19449113 5.17303432,4.16435901 L7.37313497,2.71169342 C7.5574887,2.58996975 7.80561347,2.64074145 7.92733714,2.82509519 Z" id="形状结合" fill="url(#linearGradient-2)" fill-rule="nonzero"></path>
            </g>
        </g>
    </g>
</svg>