<?xml version="1.0" encoding="UTF-8"?>
<svg width="16px" height="16px" viewBox="0 0 16 16" version="1.1" xmlns="http://www.w3.org/2000/svg" xmlns:xlink="http://www.w3.org/1999/xlink">
    <defs>
        <linearGradient x1="0.172093531%" y1="0.172093531%" x2="96.8550475%" y2="96.8550475%" id="linearGradient-1">
            <stop stop-color="#FF816C" offset="0%"></stop>
            <stop stop-color="#E03A3A" offset="100%"></stop>
        </linearGradient>
        <linearGradient x1="50%" y1="5.63198459%" x2="50%" y2="94.4798633%" id="linearGradient-2">
            <stop stop-color="#FFFFFF" offset="0%"></stop>
            <stop stop-color="#FFE1DE" offset="100%"></stop>
        </linearGradient>
    </defs>
    <g id="I05" stroke="none" stroke-width="1" fill="none" fill-rule="evenodd">
        <g id="03-状态切图" transform="translate(-482.000000, -69.000000)">
            <g id="卡片/标签/里程碑" transform="translate(482.000000, 69.000000)">
                <circle id="椭圆形备份-2" fill="url(#linearGradient-1)" cx="8" cy="8" r="8"></circle>
                <path d="M5.76207467,12.974029 C6.18685083,12.974029 6.53119995,12.6296798 6.53119995,12.2049037 L6.53119995,9 L6.53119995,9 L11.6160664,9 C11.7265233,9 11.8160664,8.91045695 11.8160664,8.8 C11.8160664,8.75492043 11.8008369,8.71116292 11.7728481,8.67582467 L10.137429,6.61097231 C10.079157,6.53739905 10.0798831,6.43320264 10.1391749,6.36044865 L11.7656255,4.36471133 C11.8354057,4.27908742 11.8225619,4.15310745 11.736938,4.08332719 C11.7015614,4.05449661 11.6573888,4.0386318 11.6117529,4.03836638 L5.99876544,4.00572038 C5.44649003,4.00250826 4.99617842,4.447612 4.9929663,4.99988741 C4.99295502,5.00182607 4.99294938,5.00376477 4.99294938,5.00570346 L4.99294938,12.2049037 C4.99294938,12.6296798 5.3372985,12.974029 5.76207467,12.974029 Z" id="路径-3备份" fill="url(#linearGradient-2)" fill-rule="nonzero"></path>
            </g>
        </g>
    </g>
</svg>