<?xml version="1.0" encoding="UTF-8"?>
<svg width="16px" height="16px" viewBox="0 0 16 16" version="1.1" xmlns="http://www.w3.org/2000/svg" xmlns:xlink="http://www.w3.org/1999/xlink">
    <defs>
        <linearGradient x1="-1.2230186e-12%" y1="6.07106957e-13%" x2="100%" y2="100%" id="linearGradient-1">
            <stop stop-color="#5FECFE" offset="0%"></stop>
            <stop stop-color="#38BEDD" offset="100%"></stop>
        </linearGradient>
        <linearGradient x1="50%" y1="3.46976947%" x2="50%" y2="108.639668%" id="linearGradient-2">
            <stop stop-color="#FFFFFF" offset="0%"></stop>
            <stop stop-color="#DDF9FF" offset="100%"></stop>
        </linearGradient>
    </defs>
    <g id="I05" stroke="none" stroke-width="1" fill="none" fill-rule="evenodd">
        <g id="03-状态切图" transform="translate(-412.000000, -67.000000)">
            <g id="卡片/标签/里程碑备份-4" transform="translate(412.000000, 67.000000)">
                <circle id="椭圆形" fill="url(#linearGradient-1)" cx="8" cy="8" r="8"></circle>
                <path d="M8.9995566,10.7222862 C9.1746181,11.0348484 9.42054153,11.3023562 9.71557049,11.5030533 C9.19827244,11.7572764 8.61580366,11.9 8,11.9 C7.39421267,11.9 6.82068461,11.7618816 6.30918872,11.5154177 L6.29358528,11.5071961 C6.58976115,11.3071036 6.83682557,11.0398371 7.01291811,10.7272568 C7.32024658,10.8390574 7.65300634,10.9 8,10.9 C8.34320552,10.9 8.67248623,10.8403808 8.97805046,10.730934 L8.9995566,10.7222862 Z M5.00763341,7.8 C6.00174596,7.8 6.80763341,8.60588745 6.80763341,9.6 C6.80763341,10.5941125 6.00174596,11.4 5.00763341,11.4 C4.01352086,11.4 3.20763341,10.5941125 3.20763341,9.6 C3.20763341,8.60588745 4.01352086,7.8 5.00763341,7.8 Z M11.0076334,7.8 C12.001746,7.8 12.8076334,8.60588745 12.8076334,9.6 C12.8076334,10.5941125 12.001746,11.4 11.0076334,11.4 C10.0135209,11.4 9.20763341,10.5941125 9.20763341,9.6 C9.20763341,8.60588745 10.0135209,7.8 11.0076334,7.8 Z M5.71966251,4.83667756 C5.75701486,5.20208006 5.87990585,5.54215866 6.0679863,5.83656415 C5.6396914,6.21948539 5.32473985,6.72958837 5.18314027,7.30774029 C5.12593752,7.3022529 5.06704856,7.3 5.00763341,7.3 C4.69889089,7.3 4.40435674,7.36083322 4.13536337,7.47116724 C4.27916045,6.41122308 4.84886861,5.48631216 5.6665678,4.87479187 L5.71966251,4.83667756 Z M10.294657,4.84576696 C11.1153055,5.44361385 11.6946053,6.35592908 11.8550632,7.40606846 L11.8634026,7.46447404 C11.5988824,7.35837557 11.3100751,7.3 11.0076334,7.3 C10.9433646,7.3 10.8797114,7.30263602 10.8167761,7.30780585 C10.6768372,6.73513183 10.3659369,6.22844765 9.94125305,5.84554478 C10.1312849,5.55149777 10.2558147,5.21142615 10.294657,4.84576696 Z M8.00763341,2.8 C9.00174596,2.8 9.80763341,3.60588745 9.80763341,4.6 C9.80763341,5.59411255 9.00174596,6.4 8.00763341,6.4 C7.01352086,6.4 6.20763341,5.59411255 6.20763341,4.6 C6.20763341,3.60588745 7.01352086,2.8 8.00763341,2.8 Z" id="形状结合" fill="url(#linearGradient-2)" fill-rule="nonzero"></path>
            </g>
        </g>
    </g>
</svg>