<?xml version="1.0" encoding="UTF-8"?>
<svg width="16px" height="16px" viewBox="0 0 16 16" version="1.1" xmlns="http://www.w3.org/2000/svg" xmlns:xlink="http://www.w3.org/1999/xlink">
    <defs>
        <linearGradient x1="90.3283276%" y1="86.4240202%" x2="13.9439398%" y2="12.7217291%" id="linearGradient-1">
            <stop stop-color="#5D78FF" offset="0%"></stop>
            <stop stop-color="#A0A0FF" offset="99.4837194%"></stop>
        </linearGradient>
        <linearGradient x1="50%" y1="5.63198459%" x2="50%" y2="93.9883831%" id="linearGradient-2">
            <stop stop-color="#FFFFFF" offset="0%"></stop>
            <stop stop-color="#D3D9FF" offset="100%"></stop>
        </linearGradient>
    </defs>
    <g id="I05" stroke="none" stroke-width="1" fill="none" fill-rule="evenodd">
        <g id="03-状态切图" transform="translate(-171.000000, -69.000000)">
            <g id="卡片/标签/里程碑备份-8" transform="translate(171.000000, 69.000000)">
                <circle id="椭圆形备份" fill="url(#linearGradient-1)" cx="8" cy="8" r="8"></circle>
                <path d="M5.61803399,4 L10.381966,4 C10.7607381,4 11.1070012,4.21400238 11.2763932,4.5527864 L12,6 L12,6 L4,6 L4.7236068,4.5527864 C4.89299881,4.21400238 5.23926193,4 5.61803399,4 Z M4,7 L6.9950451,7 L6.95807398,10.0257264 L9.05642462,10.0257264 L9.05642462,7 L12,7 L12,11 C12,11.5522847 11.5522847,12 11,12 L5,12 C4.44771525,12 4,11.5522847 4,11 L4,7 L4,7 Z" id="形状结合" fill="url(#linearGradient-2)" fill-rule="nonzero"></path>
            </g>
        </g>
    </g>
</svg>