<?xml version="1.0" encoding="UTF-8"?>
<svg width="16px" height="16px" viewBox="0 0 16 16" version="1.1" xmlns="http://www.w3.org/2000/svg" xmlns:xlink="http://www.w3.org/1999/xlink">
    <g id="I05" stroke="none" stroke-width="1" fill="none" fill-rule="evenodd">
        <g id="03-状态切图" transform="translate(-171.000000, -126.000000)" fill="#C5CBD7">
            <g id="卡片/标签/里程碑备份" transform="translate(171.000000, 126.000000)">
                <path d="M8,0 C12.418278,0 16,3.581722 16,8 C16,12.418278 12.418278,16 8,16 C3.581722,16 0,12.418278 0,8 C0,3.581722 3.581722,0 8,0 Z M6.9950451,7 L4,7 L4,11 C4,11.5522847 4.44771525,12 5,12 L11,12 C11.5522847,12 12,11.5522847 12,11 L12,7 L9.05642462,7 L9.05642462,10.0257264 L6.95807398,10.0257264 L6.9950451,7 Z M10.381966,4 L5.61803399,4 C5.23926193,4 4.89299881,4.21400238 4.7236068,4.5527864 L4,6 L12,6 L11.2763932,4.5527864 C11.1070012,4.21400238 10.7607381,4 10.381966,4 Z" id="交付物"></path>
            </g>
        </g>
    </g>
</svg>