<?xml version="1.0" encoding="UTF-8"?>
<svg width="14px" height="14px" viewBox="0 0 14 14" version="1.1" xmlns="http://www.w3.org/2000/svg" xmlns:xlink="http://www.w3.org/1999/xlink">
    <g id="I05" stroke="none" stroke-width="1" fill="none" fill-rule="evenodd">
        <g id="03-状态切图" transform="translate(-541.000000, -496.000000)" fill="#EA435D">
            <g id="-mockplus-" transform="translate(541.000000, 496.000000)">
                <g id="01-icon/表格/报错面" transform="translate(1.000000, 1.000000)">
                    <path d="M6,0 C9.3137085,0 12,2.6862915 12,6 C12,9.3137085 9.3137085,12 6,12 C2.6862915,12 0,9.3137085 0,6 C0,2.6862915 2.6862915,0 6,0 Z M6,4.38876409 C5.66862915,4.38876409 5.4,4.65739324 5.4,4.98876409 L5.4,8.99573471 C5.4,9.32710556 5.66862915,9.59573471 6,9.59573471 C6.33137085,9.59573471 6.6,9.32710556 6.6,8.99573471 L6.6,4.98876409 C6.6,4.65739324 6.33137085,4.38876409 6,4.38876409 Z M6,2.38876409 C5.66862915,2.38876409 5.4,2.65739324 5.4,2.98876409 C5.4,3.32013494 5.66862915,3.58876409 6,3.58876409 C6.33137085,3.58876409 6.6,3.32013494 6.6,2.98876409 C6.6,2.65739324 6.33137085,2.38876409 6,2.38876409 Z" id="形状结合" transform="translate(6.000000, 6.000000) scale(1, -1) translate(-6.000000, -6.000000) "></path>
                </g>
            </g>
        </g>
    </g>
</svg>