<?xml version="1.0" encoding="UTF-8"?>
<svg width="20px" height="28px" viewBox="0 0 20 28" version="1.1" xmlns="http://www.w3.org/2000/svg" xmlns:xlink="http://www.w3.org/1999/xlink">
    <title>逾期icon</title>
    <g id="页面-1" stroke="none" stroke-width="1" fill="none" fill-rule="evenodd">
        <g id="03-01项目管理-进度追踪和结案-进行中" transform="translate(-760.000000, -272.000000)" fill-rule="nonzero">
            <g id="大2" transform="translate(522.000000, 272.000000)">
                <g id="输入1" transform="translate(10.000000, 0.000000)">
                    <g id="逾期icon" transform="translate(228.000000, 0.000000)">
                        <g id="逾期标签" fill="#CC4F2E">
                            <path d="M1.82291667,0 C0.816147591,0 0,0.95217219 0,2.12673611 L0,26.0069444 C0,26.4940153 0.249612244,26.9339067 0.633760909,27.1246385 C1.01790957,27.3153703 1.46255795,27.2200923 1.76354167,26.8825521 L9.96927083,22.3554688 L18.4375,27.0590712 C18.4541667,27.0687934 18.46875,27.077908 18.4835938,27.0867187 L18.4859375,27.0867187 C18.5007813,27.0955295 18.515625,27.1040365 18.5309896,27.1119358 C18.5484375,27.1195312 18.5630208,27.1268229 18.578125,27.1335069 L18.5833333,27.1359375 C18.596875,27.1423177 18.6109375,27.1480903 18.6247396,27.153559 L18.6335938,27.156901 C18.6460938,27.1617622 18.6596354,27.1663194 18.6713542,27.1705729 L18.6848958,27.1748264 C18.6958333,27.1784722 18.7070313,27.1818142 18.7182292,27.1848524 L18.7367188,27.1897135 L18.7658854,27.1963976 L18.7893229,27.2015625 L18.8153646,27.205816 L18.8429688,27.2097656 C18.8502604,27.2097656 18.8578125,27.2115885 18.8653646,27.2125 L18.8953125,27.2152344 L18.996875,27.2152344 C19.0067708,27.2152344 19.0166667,27.2152344 19.0263021,27.2137153 L19.0427083,27.2137153 C19.0554688,27.2137153 19.06875,27.2112847 19.0809896,27.2094618 L19.0856771,27.2094618 C19.2512134,27.1865264 19.4095364,27.117208 19.5471354,27.0074219 L19.5515625,27.003776 C19.5635417,26.9940538 19.5752604,26.9843316 19.5867188,26.9733941 L19.6028646,26.9585069 C19.6104167,26.9515191 19.6182292,26.9448351 19.6255208,26.9375434 C19.6328125,26.9302517 19.6388021,26.9241753 19.6453125,26.9174913 C19.6518229,26.9108073 19.6575521,26.9053385 19.6632813,26.8989583 C19.6690104,26.8925781 19.6760417,26.8852865 19.6822917,26.8782986 L19.7002604,26.8576389 C19.7054688,26.8515625 19.7104167,26.8451823 19.7153646,26.8391059 C19.7203125,26.8330295 19.7294271,26.822092 19.7361979,26.8132813 L19.7466146,26.7990017 C19.7549479,26.7880642 19.7630208,26.7771267 19.7708333,26.7655816 L19.7763021,26.7573785 C19.7859375,26.7434028 19.7950521,26.7294271 19.8039063,26.7148438 L19.8052083,26.7130208 C19.8663813,26.6143191 19.9144883,26.5054492 19.9479167,26.3900608 C19.953125,26.3724392 19.9575521,26.3545139 19.9619792,26.3365885 L19.9635417,26.3299045 C19.9674479,26.3141059 19.9705729,26.2995226 19.9739583,26.2828125 C19.9739583,26.2779514 19.9757813,26.2733941 19.9765625,26.268533 C19.9791667,26.2554688 19.9815104,26.2417969 19.9835938,26.2284288 L19.9867188,26.2068576 C19.9882813,26.1956163 19.9898438,26.184375 19.9911458,26.1728299 L19.9942708,26.1448785 L19.9966146,26.1144965 C19.9966146,26.1038628 19.9981771,26.0929253 19.9986979,26.0819878 C19.9992188,26.0710503 19.9986979,26.0643663 20,26.0552517 L20,26.021224 L20,2.12673611 C20,0.95217219 19.1838524,0 18.1770833,0 L1.82291667,0 Z" id="路径"></path>
                        </g>
                        <g id="逾icon" transform="translate(3.000000, 5.000000)">
                            <path d="M2.0420342,7.54677897 C2.0420342,10.6020942 4.48990582,13.0786478 7.5093686,13.0786478 C10.5291728,13.0786478 12.9770444,10.6020942 12.9770444,7.54677897 C12.9770444,4.49146369 10.5288314,2.01491008 7.5093686,2.01491008 C4.48990582,2.01491008 2.0420342,4.49146369 2.0420342,7.54677897 Z" id="路径" fill-opacity="0.337412587" fill="#873F2C"></path>
                            <path d="M9.68612708,11.0439335 C9.43447672,11.2983155 9.43447672,11.6797177 9.68612708,11.9340997 C9.93743598,12.1884817 10.3143993,12.1884817 10.5657082,11.9340997 C10.8170171,11.6797177 10.8170171,11.2983155 10.5657082,11.0439335 C10.3458129,10.7895516 9.93743598,10.7895516 9.68612708,11.0439335 Z M11.759767,8.30992488 C11.4142172,8.21431823 11.0686675,8.40519008 11.0058403,8.75483724 C10.9115994,9.10448441 11.1000811,9.45447303 11.4456308,9.51798316 C11.7911806,9.6135898 12.1367303,9.42237651 12.199899,9.07272934 C12.2941398,8.75517869 12.1053167,8.40519008 11.759767,8.30992488 L11.759767,8.30992488 Z M11.759767,6.59310266 C12.1053167,6.49749602 12.2941398,6.14784885 12.199899,5.82995675 C12.1053167,5.48030958 11.759767,5.28943774 11.4452894,5.38470294 C11.1000811,5.48030958 10.9115994,5.82995675 11.0058403,6.14784885 C11.1000811,6.46574095 11.4142172,6.68836786 11.759767,6.59310266 Z M9.68612708,2.96858639 C9.43447672,3.22296836 9.43447672,3.60437059 9.68612708,3.85875256 C9.93743598,4.11313453 10.3143993,4.11313453 10.5657082,3.85875256 C10.8170171,3.60437059 10.8170171,3.22296836 10.5657082,2.96858639 C10.3458129,2.71420442 9.93743598,2.71420442 9.68612708,2.96858639 Z M8.39748606,12.1567266 C7.67463152,12.5063738 6.92036336,12.6972456 6.13502305,12.6972456 C3.2757014,12.6972456 0.950411165,10.3446392 0.950411165,7.45151377 C0.950411165,4.55838835 3.2757014,2.20544047 6.13502305,2.20544047 C6.5119864,2.20544047 6.85753614,2.23753699 7.23449949,2.33280219 L6.70115098,3.03209652 C6.54408292,3.25472342 6.57549653,3.54086046 6.79539182,3.69997724 C6.88963265,3.76348737 6.98387349,3.79524243 7.07845578,3.79524243 C7.23552384,3.79524243 7.3611783,3.7317323 7.45541913,3.60437059 L8.33500028,2.39631232 C8.36675535,2.39631232 8.36675535,2.36455725 8.39816896,2.36455725 C8.4971374,2.22589749 8.52068628,2.04710518 8.46099619,1.88754837 C8.46099619,1.85579331 8.46099619,1.85579331 8.42958257,1.82403824 L7.48649129,0.234577737 C7.36083684,0.0119508309 7.07811433,-0.0515592989 6.82646398,0.0754609606 C6.60656869,0.202822672 6.54374146,0.488618256 6.66939591,0.743000228 L7.04670072,1.34737082 C6.73256459,1.28351924 6.44950063,1.25176417 6.13502305,1.25176417 C2.74201144,1.25176417 0.00800278853,4.01752789 0.00800278853,7.45151377 C0.00800278853,10.8848168 2.74166999,13.6509219 6.1353645,13.6509219 C7.07777288,13.6509219 7.98945055,13.428295 8.80620447,13.0151377 C9.02609976,12.887776 9.15175421,12.6019804 9.02609976,12.3793535 C8.93185892,12.1567266 8.64913641,12.0614614 8.39782751,12.1567266 L8.39748606,12.1567266 Z" id="形状" fill="#FFFFFF"></path>
                            <path d="M6.44950063,7.45151377 L6.44950063,5.06681084 C6.44950063,4.81242886 6.22960534,4.59014341 5.97829644,4.59014341 C5.72664608,4.59014341 5.50709225,4.81242886 5.50709225,5.06681084 L5.50709225,7.9281812 C5.50709225,8.18256317 5.72664608,8.40519008 5.97829644,8.40519008 L8.17759077,8.40519008 C8.42924112,8.40519008 8.64879496,8.18256317 8.64879496,7.9281812 C8.64879496,7.67379923 8.42924112,7.45151377 8.17759077,7.45151377 L6.44950063,7.45151377 Z" id="路径" fill="#FFFFFF"></path>
                        </g>
                    </g>
                </g>
            </g>
        </g>
    </g>
</svg>