<?xml version="1.0" encoding="UTF-8"?>
<svg width="20px" height="28px" viewBox="0 0 20 28" version="1.1" xmlns="http://www.w3.org/2000/svg" xmlns:xlink="http://www.w3.org/1999/xlink">
    <title>进行中icon</title>
    <g id="页面-1" stroke="none" stroke-width="1" fill="none" fill-rule="evenodd">
        <g id="03-01项目管理-进度追踪和结案-进行中" transform="translate(-1066.000000, -272.000000)" fill-rule="nonzero">
            <g id="大1" transform="translate(828.000000, 272.000000)">
                <g id="输入1" transform="translate(10.000000, 0.000000)">
                    <g id="进行中icon" transform="translate(228.000000, 0.000000)">
                        <g id="进行中标签" fill="#000000" opacity="0.3">
                            <path d="M1.82291667,0 C0.816147591,0 0,0.95217219 0,2.12673611 L0,26.0069444 C0,26.4940153 0.249612244,26.9339067 0.633760909,27.1246385 C1.01790957,27.3153703 1.46255795,27.2200923 1.76354167,26.8825521 L9.96927083,22.3554688 L18.4375,27.0590712 C18.4541667,27.0687934 18.46875,27.077908 18.4835938,27.0867187 L18.4859375,27.0867187 C18.5007813,27.0955295 18.515625,27.1040365 18.5309896,27.1119358 C18.5484375,27.1195312 18.5630208,27.1268229 18.578125,27.1335069 L18.5833333,27.1359375 C18.596875,27.1423177 18.6109375,27.1480903 18.6247396,27.153559 L18.6335938,27.156901 C18.6460938,27.1617622 18.6596354,27.1663194 18.6713542,27.1705729 L18.6848958,27.1748264 C18.6958333,27.1784722 18.7070313,27.1818142 18.7182292,27.1848524 L18.7367188,27.1897135 L18.7658854,27.1963976 L18.7893229,27.2015625 L18.8153646,27.205816 L18.8429688,27.2097656 C18.8502604,27.2097656 18.8578125,27.2115885 18.8653646,27.2125 L18.8953125,27.2152344 L18.996875,27.2152344 C19.0067708,27.2152344 19.0166667,27.2152344 19.0263021,27.2137153 L19.0427083,27.2137153 C19.0554688,27.2137153 19.06875,27.2112847 19.0809896,27.2094618 L19.0856771,27.2094618 C19.2512134,27.1865264 19.4095364,27.117208 19.5471354,27.0074219 L19.5515625,27.003776 C19.5635417,26.9940538 19.5752604,26.9843316 19.5867188,26.9733941 L19.6028646,26.9585069 C19.6104167,26.9515191 19.6182292,26.9448351 19.6255208,26.9375434 C19.6328125,26.9302517 19.6388021,26.9241753 19.6453125,26.9174913 C19.6518229,26.9108073 19.6575521,26.9053385 19.6632813,26.8989583 C19.6690104,26.8925781 19.6760417,26.8852865 19.6822917,26.8782986 L19.7002604,26.8576389 C19.7054688,26.8515625 19.7104167,26.8451823 19.7153646,26.8391059 C19.7203125,26.8330295 19.7294271,26.822092 19.7361979,26.8132813 L19.7466146,26.7990017 C19.7549479,26.7880642 19.7630208,26.7771267 19.7708333,26.7655816 L19.7763021,26.7573785 C19.7859375,26.7434028 19.7950521,26.7294271 19.8039063,26.7148438 L19.8052083,26.7130208 C19.8663813,26.6143191 19.9144883,26.5054492 19.9479167,26.3900608 C19.953125,26.3724392 19.9575521,26.3545139 19.9619792,26.3365885 L19.9635417,26.3299045 C19.9674479,26.3141059 19.9705729,26.2995226 19.9739583,26.2828125 C19.9739583,26.2779514 19.9757813,26.2733941 19.9765625,26.268533 C19.9791667,26.2554688 19.9815104,26.2417969 19.9835938,26.2284288 L19.9867188,26.2068576 C19.9882813,26.1956163 19.9898438,26.184375 19.9911458,26.1728299 L19.9942708,26.1448785 L19.9966146,26.1144965 C19.9966146,26.1038628 19.9981771,26.0929253 19.9986979,26.0819878 C19.9992188,26.0710503 19.9986979,26.0643663 20,26.0552517 L20,26.021224 L20,2.12673611 C20,0.95217219 19.1838524,0 18.1770833,0 L1.82291667,0 Z" id="路径"></path>
                        </g>
                        <g transform="translate(4.000000, 6.000000)" fill="#FFFFFF" id="形状">
                            <path d="M12,6.3 C12,6.6 11.7,6.9 11.4,6.9 L9.4992,6.9 C9.1992,6.9 8.8992,6.6 8.8992,6.3 L8.8992,5.7 C8.8992,5.4 9.1992,5.1 9.4992,5.1 L11.4,5.1 C11.7,5.1 12,5.3004 12,5.7 L12,6.3 Z M10.2,10.2 C9.9,10.5996 9.3,10.5996 8.9004,10.2 L8.0004,9.3 C7.5996,9 7.5996,8.4 8.0004,8.0004 C8.3004,7.6008 8.9004,7.6008 9.3,8.0004 L10.2,8.9004 C10.5996,9.2004 10.5996,9.8004 10.2,10.2 Z M6.9,2.4996 C6.9,2.7996 6.6,3.0996 6.3,3.0996 L5.7,3.0996 C5.4,3.0996 5.1,2.7996 5.1,2.4996 L5.1,0.6 C5.1,0.3 5.3004,0 5.7,0 L6.3,0 C6.6996,0 6.9,0.3 6.9,0.6 L6.9,2.4996 Z M6.9,11.4 C6.9,11.7 6.6,12 6.3,12 L5.7,12 C5.4,12 5.1,11.7 5.1,11.4 L5.1,9.5004 C5.1,9.2004 5.4,8.9004 5.7,8.9004 L6.3,8.9004 C6.6996,8.9004 6.9,9.0996 6.9,9.5004 L6.9,11.4 L6.9,11.4 Z M3.9996,3.9996 C3.6,4.4004 3,4.4004 2.7,3.9996 L1.8,3.0996 C1.4004,2.7996 1.4004,2.1996 1.8,1.8 C2.1,1.4004 2.7,1.4004 3.0996,1.8 L3.9996,2.7 C4.4004,3 4.4004,3.6 3.9996,3.9996 Z M3.9996,9.3 L3.0996,10.2 C2.7996,10.5996 2.1996,10.5996 1.8,10.2 C1.4004,9.9 1.4004,9.3 1.8,8.9004 L2.7,8.0004 C3,7.5996 3.6,7.5996 3.9996,8.0004 C4.4004,8.3004 4.4004,8.9004 3.9996,9.3 Z M0,6.3 L0,5.7 C0,5.3004 0.3,5.1 0.6,5.1 L2.6004,5.1 C2.9004,5.1 3.2004,5.4 3.2004,5.7 L3.2004,6.3 C3.2004,6.6996 2.9004,6.9 2.4996,6.9 L0.6,6.9 C0.3,6.9 0,6.6 0,6.3 Z M7.9992,2.7 L8.8992,1.8 C9.1992,1.4004 9.7992,1.4004 10.2,1.8 C10.5996,2.1 10.5996,2.7 10.2,3.1008 L9.3,4.0008 C9,4.4004 8.4,4.4004 7.9992,4.0008 C7.5996,3.7008 7.5996,3.1008 7.9992,2.7 L7.9992,2.7 Z"></path>
                        </g>
                    </g>
                </g>
            </g>
        </g>
    </g>
</svg>