<?xml version="1.0" standalone="no"?><!DOCTYPE svg PUBLIC "-//W3C//DTD SVG 1.1//EN" "http://www.w3.org/Graphics/SVG/1.1/DTD/svg11.dtd"><svg t="1615881718562" class="icon" viewBox="0 0 1024 1024" version="1.1" xmlns="http://www.w3.org/2000/svg" p-id="3563" xmlns:xlink="http://www.w3.org/1999/xlink" width="200" height="200"><defs><style type="text/css"></style></defs><path d="M512 0c282.774588 0 512 229.225412 512 512s-229.225412 512-512 512S0 794.774588 0 512 229.225412 0 512 0z m-80.444235 600.636235H278.768941l-3.855059 0.210824C255.819294 602.774588 240.941176 618.917647 240.941176 638.494118v111.766588l0.180706 3.885176c1.957647 19.064471 18.070588 33.942588 37.647059 33.942589h464.173177l3.855058-0.180706a37.827765 37.827765 0 0 0 33.972706-37.647059V638.494118l-0.210823-3.855059a37.827765 37.827765 0 0 0-37.647059-33.972706h-156.461176l-2.800942 0.210823a19.094588 19.094588 0 0 0-15.631058 13.643295 61.349647 61.349647 0 0 1-118.061177 0 19.124706 19.124706 0 0 0-18.401882-13.854118zM715.595294 240.941176H404.359529l-2.800941 0.210824c-10.119529 1.566118-18.010353 11.444706-18.010353 23.009882v306.778353h82.763294l0.180706 4.547765c2.017882 23.943529 19.877647 42.706824 41.381647 42.706824 23.190588 0 41.562353-21.172706 41.562353-47.254589h186.970353V264.161882l-0.180706-3.19247c-1.385412-11.444706-10.119529-20.028235-20.60047-20.028236zM342.046118 288.195765h-25.6a36.743529 36.743529 0 0 0-36.74353 36.743529v246.031059h62.34353V288.195765z m306.748235 161.490823c8.493176 0 14.757647 6.927059 15.119059 15.119059 0.391529 8.192-7.228235 15.149176-15.119059 15.149177H471.642353l-2.740706-0.271059a15.570824 15.570824 0 0 1-12.408471-14.878118c-0.361412-8.192 7.228235-15.119059 15.149177-15.119059z m-0.180706-105.712941c8.493176 0 14.757647 6.927059 15.119059 15.119059 0.391529 8.222118-7.228235 15.149176-15.119059 15.149176h-177.182118l-2.710588-0.240941a15.570824 15.570824 0 0 1-12.40847-14.908235c-0.361412-8.192 7.228235-15.119059 15.119058-15.119059z" fill="#EA3D46" p-id="3564"></path></svg>