<?xml version="1.0" encoding="UTF-8"?>
<svg width="20px" height="28px" viewBox="0 0 20 28" version="1.1" xmlns="http://www.w3.org/2000/svg" xmlns:xlink="http://www.w3.org/1999/xlink">
    <title>异常icon</title>
    <g id="页面-1" stroke="none" stroke-width="1" fill="none" fill-rule="evenodd">
        <g id="03-01项目管理-进度追踪和结案-进行中" transform="translate(-735.000000, -272.000000)" fill-rule="nonzero">
            <g id="大2" transform="translate(522.000000, 272.000000)">
                <g id="输入1" transform="translate(10.000000, 0.000000)">
                    <g id="异常icon" transform="translate(203.000000, 0.000000)">
                        <g id="异常标签" fill="#F9404C">
                            <path d="M1.82291667,0 C0.816147591,0 0,0.95217219 0,2.12673611 L0,26.0069444 C0,26.4940153 0.249612244,26.9339067 0.633760909,27.1246385 C1.01790957,27.3153703 1.46255795,27.2200923 1.76354167,26.8825521 L9.96927083,22.3554688 L18.4375,27.0590712 C18.4541667,27.0687934 18.46875,27.077908 18.4835938,27.0867187 L18.4859375,27.0867187 C18.5007813,27.0955295 18.515625,27.1040365 18.5309896,27.1119358 C18.5484375,27.1195312 18.5630208,27.1268229 18.578125,27.1335069 L18.5833333,27.1359375 C18.596875,27.1423177 18.6109375,27.1480903 18.6247396,27.153559 L18.6335938,27.156901 C18.6460938,27.1617622 18.6596354,27.1663194 18.6713542,27.1705729 L18.6848958,27.1748264 C18.6958333,27.1784722 18.7070313,27.1818142 18.7182292,27.1848524 L18.7367188,27.1897135 L18.7658854,27.1963976 L18.7893229,27.2015625 L18.8153646,27.205816 L18.8429688,27.2097656 C18.8502604,27.2097656 18.8578125,27.2115885 18.8653646,27.2125 L18.8953125,27.2152344 L18.996875,27.2152344 C19.0067708,27.2152344 19.0166667,27.2152344 19.0263021,27.2137153 L19.0427083,27.2137153 C19.0554688,27.2137153 19.06875,27.2112847 19.0809896,27.2094618 L19.0856771,27.2094618 C19.2512134,27.1865264 19.4095364,27.117208 19.5471354,27.0074219 L19.5515625,27.003776 C19.5635417,26.9940538 19.5752604,26.9843316 19.5867188,26.9733941 L19.6028646,26.9585069 C19.6104167,26.9515191 19.6182292,26.9448351 19.6255208,26.9375434 C19.6328125,26.9302517 19.6388021,26.9241753 19.6453125,26.9174913 C19.6518229,26.9108073 19.6575521,26.9053385 19.6632813,26.8989583 C19.6690104,26.8925781 19.6760417,26.8852865 19.6822917,26.8782986 L19.7002604,26.8576389 C19.7054688,26.8515625 19.7104167,26.8451823 19.7153646,26.8391059 C19.7203125,26.8330295 19.7294271,26.822092 19.7361979,26.8132813 L19.7466146,26.7990017 C19.7549479,26.7880642 19.7630208,26.7771267 19.7708333,26.7655816 L19.7763021,26.7573785 C19.7859375,26.7434028 19.7950521,26.7294271 19.8039063,26.7148438 L19.8052083,26.7130208 C19.8663813,26.6143191 19.9144883,26.5054492 19.9479167,26.3900608 C19.953125,26.3724392 19.9575521,26.3545139 19.9619792,26.3365885 L19.9635417,26.3299045 C19.9674479,26.3141059 19.9705729,26.2995226 19.9739583,26.2828125 C19.9739583,26.2779514 19.9757813,26.2733941 19.9765625,26.268533 C19.9791667,26.2554688 19.9815104,26.2417969 19.9835938,26.2284288 L19.9867188,26.2068576 C19.9882813,26.1956163 19.9898438,26.184375 19.9911458,26.1728299 L19.9942708,26.1448785 L19.9966146,26.1144965 C19.9966146,26.1038628 19.9981771,26.0929253 19.9986979,26.0819878 C19.9992188,26.0710503 19.9986979,26.0643663 20,26.0552517 L20,26.021224 L20,2.12673611 C20,0.95217219 19.1838524,0 18.1770833,0 L1.82291667,0 Z" id="路径"></path>
                        </g>
                        <g transform="translate(3.000000, 6.000000)" fill="#FFFFFF">
                            <path d="M8.11850989,0.636254507 L13.7902106,9.91716224 C14.038747,10.3238811 14.0482629,10.8331143 13.8150951,11.2488346 C13.5819274,11.664555 13.1424296,11.9219287 12.6657845,11.9219287 L1.3217556,11.9219287 C0.845335006,11.9214933 0.406252657,11.6639233 0.17339263,11.2482877 C-0.0594673976,10.8326521 -0.0498351873,10.3236896 0.198584427,9.91716224 L5.87091259,0.63688198 C6.09878613,0.264635243 6.49619795,0.0293761714 6.93216153,0.00864591395 C7.36812511,-0.0120843435 7.78606672,0.184404318 8.04823325,0.533349437 L8.11850989,0.636254507 Z M12.7191194,10.5716134 L7.04741871,1.29133311 L7.03863413,1.27878372 L7.0267122,1.26999913 C6.9972356,1.25210989 6.9588469,1.26135681 6.94074882,1.29070565 L1.26904813,10.5709859 C1.25694677,10.5903479 1.2563181,10.6147552 1.26740662,10.6347146 C1.27849514,10.6546739 1.29955046,10.6669889 1.32238308,10.6669889 L12.6664119,10.6669889 C12.6890433,10.6668946 12.7098704,10.6546207 12.7209164,10.6348678 C12.7319624,10.615115 12.7315155,10.5909444 12.7197469,10.5716134 L12.7191194,10.5716134 Z" id="形状"></path>
                            <path d="M6.99408377,3.76481958 C7.23730406,3.76490448 7.46955538,3.86603938 7.6353012,4.04404063 C7.80104701,4.22204187 7.88538548,4.46090578 7.86814939,4.70351459 L7.66610406,7.53152156 C7.63976345,7.88319634 7.34674362,8.15508963 6.99408377,8.15508963 C6.64142391,8.15508963 6.34840408,7.88319634 6.32206347,7.53152156 L6.12001816,4.70351459 C6.10278206,4.46090578 6.18712053,4.22204187 6.35286634,4.04404063 C6.51861215,3.86603939 6.75086348,3.76490449 6.99408377,3.76481958 Z" id="路径"></path>
                            <path d="M6.36661383,9.41204895 C6.36661383,9.75859102 6.64754169,10.0395189 6.99408377,10.0395189 C7.34062584,10.0395189 7.6215537,9.75859102 7.6215537,9.41204895 C7.6215537,9.06550688 7.34062584,8.78457902 6.99408377,8.78457902 C6.64754169,8.78457902 6.36661383,9.06550688 6.36661383,9.41204895 Z" id="路径"></path>
                        </g>
                    </g>
                </g>
            </g>
        </g>
    </g>
</svg>