<?xml version="1.0" standalone="no"?><!DOCTYPE svg PUBLIC "-//W3C//DTD SVG 1.1//EN" "http://www.w3.org/Graphics/SVG/1.1/DTD/svg11.dtd"><svg t="1615964285405" class="icon" viewBox="0 0 1024 1024" version="1.1" xmlns="http://www.w3.org/2000/svg" p-id="3829" xmlns:xlink="http://www.w3.org/1999/xlink" width="200" height="200"><defs><style type="text/css"></style></defs><path d="M0 0m256 0l512 0q256 0 256 256l0 512q0 256-256 256l-512 0q-256 0-256-256l0-512q0-256 256-256Z" fill="#DADADA" p-id="3830"></path><path d="M896 894.72a13.568 13.568 0 0 1-13.568 13.568H141.568a13.568 13.568 0 0 1-13.184-16.768 384.192 384.192 0 0 1 257.088-345.792l119.168 119.168a10.496 10.496 0 0 0 14.784 0L638.72 545.728a384.32 384.32 0 0 1 257.024 345.792 15.872 15.872 0 0 1 0.32 3.2zM512 524.288A230.208 230.208 0 1 1 512 63.936a230.208 230.208 0 0 1 0 460.352z" fill="#ADADAD" p-id="3831"></path></svg>