<?xml version="1.0" encoding="UTF-8"?>
<svg width="48px" height="48px" viewBox="0 0 48 48" version="1.1" xmlns="http://www.w3.org/2000/svg" xmlns:xlink="http://www.w3.org/1999/xlink">
    <title>已完成icon</title>
    <defs>
        <path d="M0,0 L32.0000172,0 C40.8365637,0 48,7.16015219 48,15.9999828 L48,48 L0,48 L0,0 Z" id="path-1"></path>
    </defs>
    <g id="页面-1" stroke="none" stroke-width="1" fill="none" fill-rule="evenodd" opacity="0.575853924">
        <g id="03-01项目管理-进度追踪和结案-进行中" transform="translate(-438.000000, -272.000000)">
            <g id="大1" transform="translate(216.000000, 272.000000)">
                <g id="输入1" transform="translate(10.000000, 0.000000)">
                    <g id="已完成icon" transform="translate(212.000000, 0.000000)">
                        <mask id="mask-2" fill="white">
                            <use xlink:href="#path-1"></use>
                        </mask>
                        <use id="Mask" fill="#FFFFFF" opacity="0" xlink:href="#path-1"></use>
                        <g id="Group" mask="url(#mask-2)">
                            <g transform="translate(30.354075, 14.605509) rotate(27.000000) translate(-30.354075, -14.605509) translate(3.854075, -11.894491)" id="Group-11">
                                <g transform="translate(0.000000, 0.000000)">
                                    <text id="已完成" font-family="SourceHanSansCN-Medium, Source Han Sans CN" font-size="12" font-weight="400" fill="#FFFFFF">
                                        <tspan x="8.27667894" y="29.8396257">已完成</tspan>
                                    </text>
                                    <path d="M11.1811044,13.727073 C11.5527815,13.727073 11.8540854,14.0283769 11.8540854,14.400054 C11.8540854,14.7717312 11.5527815,15.0730351 11.1811044,15.0730351 C10.8094272,15.0730351 10.5081233,14.7717312 10.5081233,14.400054 C10.5081233,14.0283769 10.8094272,13.727073 11.1811044,13.727073 Z M15.2189907,13.727073 C15.5906679,13.727073 15.8919718,14.0283769 15.8919718,14.400054 C15.8919718,14.7717312 15.5906679,15.0730351 15.2189907,15.0730351 C14.8473135,15.0730351 14.5460096,14.7717312 14.5460096,14.400054 C14.5460096,14.0283769 14.8473135,13.727073 15.2189907,13.727073 Z M19.256877,13.727073 C19.6285542,13.727073 19.9298581,14.0283769 19.9298581,14.400054 C19.9298581,14.7717312 19.6285542,15.0730351 19.256877,15.0730351 C18.8851999,15.0730351 18.583896,14.7717312 18.583896,14.400054 C18.583896,14.0283769 18.8851999,13.727073 19.256877,13.727073 Z M23.2947634,13.727073 C23.6664406,13.727073 23.9677444,14.0283769 23.9677444,14.400054 C23.9677444,14.7717312 23.6664406,15.0730351 23.2947634,15.0730351 C22.9230862,15.0730351 22.6217823,14.7717312 22.6217823,14.400054 C22.6217823,14.0283769 22.9230862,13.727073 23.2947634,13.727073 Z M27.3326497,13.727073 C27.7043269,13.727073 28.0056308,14.0283769 28.0056308,14.400054 C28.0056308,14.7717312 27.7043269,15.0730351 27.3326497,15.0730351 C26.9609725,15.0730351 26.6596687,14.7717312 26.6596687,14.400054 C26.6596687,14.0283769 26.9609725,13.727073 27.3326497,13.727073 Z M31.3705361,13.727073 C31.7422132,13.727073 32.0435171,14.0283769 32.0435171,14.400054 C32.0435171,14.7717312 31.7422132,15.0730351 31.3705361,15.0730351 C30.9988589,15.0730351 30.697555,14.7717312 30.697555,14.400054 C30.697555,14.0283769 30.9988589,13.727073 31.3705361,13.727073 Z M35.4084224,13.727073 C35.7800996,13.727073 36.0814035,14.0283769 36.0814035,14.400054 C36.0814035,14.7717312 35.7800996,15.0730351 35.4084224,15.0730351 C35.0367452,15.0730351 34.7354413,14.7717312 34.7354413,14.400054 C34.7354413,14.0283769 35.0367452,13.727073 35.4084224,13.727073 Z M39.4463087,13.727073 C39.8179859,13.727073 40.1192898,14.0283769 40.1192898,14.400054 C40.1192898,14.7717312 39.8179859,15.0730351 39.4463087,15.0730351 C39.0746316,15.0730351 38.7733277,14.7717312 38.7733277,14.400054 C38.7733277,14.0283769 39.0746316,13.727073 39.4463087,13.727073 Z M43.4841951,13.727073 C43.8558723,13.727073 44.1571761,14.0283769 44.1571761,14.400054 C44.1571761,14.7717312 43.8558723,15.0730351 43.4841951,15.0730351 C43.1125179,15.0730351 42.811214,14.7717312 42.811214,14.400054 C42.811214,14.0283769 43.1125179,13.727073 43.4841951,13.727073 Z" id="Combined-Shape" fill="#FFFFFF" opacity="0.5"></path>
                                    <path d="M43.7199667,34.9716731 C44.1098148,34.9716731 44.4258491,35.2877074 44.4258491,35.6775555 C44.4258491,36.0674035 44.1098148,36.3834378 43.7199667,36.3834378 C43.3301187,36.3834378 43.0140844,36.0674035 43.0140844,35.6775555 C43.0140844,35.2877074 43.3301187,34.9716731 43.7199667,34.9716731 Z M7.55987353,34.8635191 C7.93155071,34.8635191 8.23285459,35.1648229 8.23285459,35.5365001 C8.23285459,35.9081773 7.93155071,36.2094812 7.55987353,36.2094812 C7.18819636,36.2094812 6.88689248,35.9081773 6.88689248,35.5365001 C6.88689248,35.1648229 7.18819636,34.8635191 7.55987353,34.8635191 Z M11.5977599,34.8635191 C11.969437,34.8635191 12.2707409,35.1648229 12.2707409,35.5365001 C12.2707409,35.9081773 11.969437,36.2094812 11.5977599,36.2094812 C11.2260827,36.2094812 10.9247788,35.9081773 10.9247788,35.5365001 C10.9247788,35.1648229 11.2260827,34.8635191 11.5977599,34.8635191 Z M15.6356462,34.8635191 C16.0073234,34.8635191 16.3086273,35.1648229 16.3086273,35.5365001 C16.3086273,35.9081773 16.0073234,36.2094812 15.6356462,36.2094812 C15.263969,36.2094812 14.9626652,35.9081773 14.9626652,35.5365001 C14.9626652,35.1648229 15.263969,34.8635191 15.6356462,34.8635191 Z M19.6735326,34.8635191 C20.0452097,34.8635191 20.3465136,35.1648229 20.3465136,35.5365001 C20.3465136,35.9081773 20.0452097,36.2094812 19.6735326,36.2094812 C19.3018554,36.2094812 19.0005515,35.9081773 19.0005515,35.5365001 C19.0005515,35.1648229 19.3018554,34.8635191 19.6735326,34.8635191 Z M23.7114189,34.8635191 C24.0830961,34.8635191 24.3844,35.1648229 24.3844,35.5365001 C24.3844,35.9081773 24.0830961,36.2094812 23.7114189,36.2094812 C23.3397417,36.2094812 23.0384378,35.9081773 23.0384378,35.5365001 C23.0384378,35.1648229 23.3397417,34.8635191 23.7114189,34.8635191 Z M27.7493052,34.8635191 C28.1209824,34.8635191 28.4222863,35.1648229 28.4222863,35.5365001 C28.4222863,35.9081773 28.1209824,36.2094812 27.7493052,36.2094812 C27.3776281,36.2094812 27.0763242,35.9081773 27.0763242,35.5365001 C27.0763242,35.1648229 27.3776281,34.8635191 27.7493052,34.8635191 Z M31.7871916,34.8635191 C32.1588688,34.8635191 32.4601726,35.1648229 32.4601726,35.5365001 C32.4601726,35.9081773 32.1588688,36.2094812 31.7871916,36.2094812 C31.4155144,36.2094812 31.1142105,35.9081773 31.1142105,35.5365001 C31.1142105,35.1648229 31.4155144,34.8635191 31.7871916,34.8635191 Z M35.8250779,34.8635191 C36.1967551,34.8635191 36.498059,35.1648229 36.498059,35.5365001 C36.498059,35.9081773 36.1967551,36.2094812 35.8250779,36.2094812 C35.4534007,36.2094812 35.1520969,35.9081773 35.1520969,35.5365001 C35.1520969,35.1648229 35.4534007,34.8635191 35.8250779,34.8635191 Z M39.8958656,34.7977165 C40.2857136,34.7977165 40.6017479,35.1137508 40.6017479,35.5035988 C40.6017479,35.8934469 40.2857136,36.2094812 39.8958656,36.2094812 C39.5060175,36.2094812 39.1899832,35.8934469 39.1899832,35.5035988 C39.1899832,35.1137508 39.5060175,34.7977165 39.8958656,34.7977165 Z" id="Combined-Shape" fill="#FFFFFF" opacity="0.5"></path>
                                    <circle id="Oval-6" stroke="#FFFFFF" stroke-width="2" cx="26.0219342" cy="26.0219342" r="26.0219342"></circle>
                                    <circle id="Oval-6-Copy" stroke="#FFFFFF" opacity="0.5" cx="25.9658524" cy="25.9658524" r="23.2739282"></circle>
                                </g>
                            </g>
                        </g>
                    </g>
                </g>
            </g>
        </g>
    </g>
</svg>